<?xml version="1.0" encoding="utf-8"?>
<!-- Generator: Adobe Illustrator 27.5.0, SVG Export Plug-In . SVG Version: 6.00 Build 0)  -->
<svg version="1.1" xmlns="http://www.w3.org/2000/svg" xmlns:xlink="http://www.w3.org/1999/xlink" x="0px" y="0px"
	 viewBox="0 0 500 500" style="enable-background:new 0 0 500 500;" xml:space="preserve">
<g id="BACKGROUND">
	<rect style="opacity: 0" width="500" height="500"/>
</g>
<g id="OBJECTS">
	<path style="fill:#D1F9FF;" d="M454.61,119.86c-44.796-85.797-154.991-99.563-236.897-80.894
		C134.496,57.933,46.56,118.288,28.484,212.203c-7.232,37.573-4.639,77.028,8.678,112.764c17.677,47.436,52.104,82.79,93.44,103.732
		c61.445,31.13,141.888,31.415,198.67-11.541c23.155-17.517,41.513-40.919,63.673-59.581c27.153-22.867,53.687-45.958,68.362-80.139
		C482.622,227.792,479.451,167.439,454.61,119.86z"/>
	<g>
		<path style="fill:#FFFFFF;" d="M442.448,244.59c-2.629-0.191-5.27,0.012-7.903-0.059c-2.469-0.066-4.939-0.097-7.409-0.114
			c-2.47-0.017-4.939-0.089-7.409-0.065c-1.659,0.016-5.225-0.04-5.347-0.04c-0.416-0.001-0.227-0.088-0.643-0.089
			c0.314-0.087-0.031-0.252-0.026-0.682c0.076-6.162,0.092-12.324,0.142-18.486c0.049-5.976,0.222-12.018-0.003-17.989
			c-0.232-6.142-0.065-12.342-0.03-18.49c0.008-1.452,0.019-2.904,0.03-4.356c8.988,0.244,17.978,0.452,26.965,0.727
			c0.89,0.027,0.882-1.223,0-1.266c-8.982-0.435-17.966-0.83-26.953-1.192c0.03-4.05,0.054-8.1,0.025-12.15
			c-0.144-20.146-0.155-40.296-0.146-60.444c9.024,0.245,18.05,0.454,27.073,0.729c0.89,0.027,0.882-1.223,0-1.266
			c-9.022-0.437-18.046-0.834-27.073-1.197c0.002-3.594,0.003-7.188,0.005-10.782c0.009-13.745,0.052-27.486-0.203-41.23
			c-0.017-0.931-1.436-0.969-1.453-0.03c-0.314,17.317-0.273,34.642-0.232,51.964c-28.158-1.12-56.335-1.904-84.51-2.456
			c-0.277-0.005-0.555-0.009-0.832-0.014c0.001-2.745,0.003-5.49,0.004-8.235c0.008-13.745,0.052-27.486-0.203-41.23
			c-0.017-0.931-1.436-0.969-1.453-0.03c-0.299,16.483-0.276,32.973-0.238,49.461c-28.436-0.545-56.889-0.897-85.336-0.969
			c0.001-2.411,0.002-4.822,0.004-7.233c0.008-13.745,0.052-27.486-0.203-41.23c-0.017-0.931-1.436-0.969-1.453-0.03
			c-0.293,16.16-0.277,32.327-0.24,48.492c-7.664-0.016-15.327-0.026-22.989,0.002c-10.619,0.038-21.238,0.08-31.856,0.138
			c-5.213,0.028-10.426,0.064-15.638,0.107c-4.971,0.041-9.896,0.232-14.851,0.518c0.002-2.666,0.002-5.332,0.004-7.998
			c0.008-13.745,0.052-27.486-0.203-41.23c-0.017-0.931-1.436-0.969-1.453-0.03c-0.3,16.547-0.276,33.101-0.237,49.653
			c-0.082,0.16-0.082,0.345,0.001,0.502c0.018,7.683,0.039,15.365,0.031,23.047c-0.016,16.926-0.034,33.851-0.034,50.777
			c-0.079,0.157-0.079,0.339,0,0.494c0,7.228-0.006,14.456,0.008,21.685c0.026,13.742-0.027,27.486,0.148,41.229
			c0.002,0.169,0.053,0.304,0.123,0.423c0.015,0.344,0.246,0.68,0.703,0.704c8.555,0.444,17.178,0.252,25.744,0.308
			c8.581,0.057,17.163,0.046,25.744,0.089c17.161,0.088,34.328,0.279,51.489,0.25c34.15-0.059,68.301,0.23,102.452,0.335
			c19.124,0.059,68.079,0.303,70.549,0.303c2.47,0.001,4.939-0.013,7.409-0.061c2.633-0.052,5.272,0.17,7.903-0.003
			C443.263,245.802,443.261,244.649,442.448,244.59z M377.145,108.721c10.616,0.265,21.224,0.736,31.838,1.047
			c0.96,0.028,1.921,0.05,2.881,0.077c0.015,6.493,0.029,12.986,0.023,19.478c-0.017,17.695-0.036,35.39-0.034,53.084
			c-28.156-1.12-56.33-1.904-84.504-2.456c-0.232-0.005-0.464-0.007-0.696-0.012c0.02-3.2,0.031-6.4,0.008-9.6
			c-0.15-20.907-0.155-41.818-0.144-62.727C343.395,107.928,360.273,108.299,377.145,108.721z M264.223,106.759
			c20.136,0.154,40.274,0.442,60.41,0.815c0.017,7.25,0.035,14.5,0.028,21.748c-0.016,16.861-0.034,33.721-0.034,50.581
			c-28.389-0.544-56.795-0.896-85.196-0.969c0.016-2.865,0.025-5.731,0.004-8.596c-0.152-21.23-0.155-42.463-0.144-63.694
			C247.602,106.666,255.912,106.696,264.223,106.759z M207.461,106.57c9.981,0.034,19.963,0.045,29.944,0.069
			c0.018,7.562,0.038,15.123,0.03,22.684c-0.016,16.538-0.033,33.075-0.035,49.612c-7.664-0.016-15.327-0.026-22.989,0.002
			c-10.619,0.038-21.238,0.08-31.856,0.138c-5.213,0.028-10.426,0.064-15.638,0.106c-4.925,0.04-9.806,0.229-14.713,0.511
			c0.019-3.118,0.028-6.235,0.006-9.353c-0.152-21.239-0.155-42.482-0.144-63.722C170.509,107.236,189.004,106.507,207.461,106.57z
			 M208.951,243.239c-9.632-0.035-19.264-0.087-28.897-0.151c-4.729-0.032-9.457,0.008-14.186-0.006
			c-4.608-0.013-9.225-0.106-13.831,0.058c0.072-6.028,0.09-12.056,0.139-18.084c0.049-5.976,0.222-12.018-0.003-17.989
			c-0.232-6.142-0.065-12.342-0.03-18.49c0.014-2.544,0.035-5.089,0.053-7.634c18.401,0.612,36.852-0.113,55.266-0.051
			c9.98,0.034,19.96,0.046,29.941,0.069c0,7.106-0.006,14.211,0.007,21.317c0.026,13.69-0.026,27.382,0.147,41.073
			C228.021,243.314,218.486,243.273,208.951,243.239z M311.403,243.737c-24.047-0.176-48.094-0.284-72.141-0.379
			c0.074-6.1,0.091-12.202,0.141-18.303c0.049-5.976,0.222-12.018-0.003-17.989c-0.232-6.142-0.065-12.342-0.03-18.49
			c0.014-2.536,0.035-5.072,0.052-7.609c8.268,0.021,16.535,0.051,24.802,0.114c20.134,0.154,40.27,0.442,60.405,0.815
			c0.001,6.794-0.006,13.588,0.007,20.382c0.026,13.742-0.027,27.486,0.148,41.229c0.001,0.116,0.03,0.214,0.065,0.307
			C320.366,243.789,315.884,243.77,311.403,243.737z M411.995,244.306c-16.583-0.033-32.52-0.204-49.104-0.298
			c-12.155-0.068-24.311-0.121-36.466-0.186c0.03-0.086,0.059-0.174,0.06-0.281c0.076-6.162,0.092-12.324,0.142-18.486
			c0.049-5.976,0.222-12.018-0.003-17.989c-0.232-6.142-0.065-12.342-0.03-18.49c0.013-2.213,0.03-4.426,0.046-6.64
			c16.838,0.316,33.674,0.686,50.505,1.107c10.616,0.266,21.224,0.736,31.838,1.047c0.957,0.028,1.914,0.05,2.871,0.076
			c0.001,6.037-0.005,12.074,0.006,18.112c0.026,13.742-0.027,27.486,0.148,41.229C412.014,243.958,411.657,244.22,411.995,244.306z
			"/>
		<g>
			<path style="fill:#FC6165;" d="M450.586,61.474c-0.097-0.418-0.533-0.729-0.954-0.726c-5.651,0.047-11.299,0.745-16.948,0.853
				c-5.631,0.107-11.337,0.403-16.949,0.881c-2.802,0.239-5.661,0.261-8.474,0.395c-2.824,0.134-5.653,0.224-8.474,0.403
				c-5.729,0.363-11.465,0.58-17.198,0.887c-3.161,0.17-6.31,0.367-9.471,0.529c-1.581,0.081-3.158,0.171-4.736,0.299
				c-1.544,0.125-3.151,0.095-4.618,0.617c-0.453-0.174-0.928,0.271-0.814,0.749c0.714,2.992,3.046,5.701,4.909,8.094
				c2.074,2.664,3.983,5.476,5.991,8.193c0.892,1.207,1.785,2.417,2.672,3.632c-21.766,17.283-43.945,34.077-66.236,50.677
				c-11.511,8.572-23.005,17.232-34.764,25.46c-11.769,8.235-23.214,16.94-35.036,25.103c-13.288,9.175-26.438,18.554-39.624,27.877
				c-0.246,0.174-0.322,0.425-0.299,0.664c-0.075,0.148-0.095,0.325,0,0.514c3.275,6.518,6.596,12.994,10.055,19.416
				c0.182,0.339,0.617,0.41,0.938,0.246c6.617-3.379,13.365-6.51,20.002-9.852c6.637-3.342,13.265-6.701,19.876-10.093
				c13.081-6.71,26.085-13.558,38.978-20.623c25.776-14.124,51.28-28.754,76.485-43.874c13.25-7.948,26.322-16.187,39.551-24.165
				c0.876,1.19,1.734,2.391,2.518,3.637c0.978,1.554,2.259,2.895,3.333,4.39c1.036,1.442,2.06,2.899,3.149,4.302
				c2.383,3.07,4.559,6.305,6.891,9.421c0.832,1.112,2.606,0.296,2.324-0.828c1.079-2.621,1.863-5.423,2.775-8.109
				c0.95-2.799,1.898-5.598,2.853-8.395c1.909-5.592,3.518-11.284,5.409-16.879c3.784-11.197,7.178-22.528,10.64-33.826
				c0.959-3.131,1.772-6.341,2.821-9.437c0.806-2.38,1.687-4.891,2.159-7.416C450.721,63.561,450.828,62.515,450.586,61.474z"/>
			<path style="fill:#FCA4A6;" d="M372.241,87.484c-11.053,8.694-22.355,17.09-33.508,25.659
				c-11.142,8.56-22.277,17.139-33.518,25.569c-6.225,4.669-12.439,9.393-18.362,14.439c-0.389,0.331,0.124,1.002,0.549,0.712
				c11.518-7.856,22.373-16.724,33.465-25.168c11.179-8.511,22.357-17.023,33.545-25.523c6.29-4.779,12.486-9.684,18.833-14.387
				C374.198,88.078,373.189,86.738,372.241,87.484z"/>
			<path style="fill:#FCA4A6;" d="M450.244,60.09c-22.005,1.281-44.034,2.163-66.044,3.363c-6.294,0.343-12.586,0.656-18.87,1.157
				c-0.524,0.042-0.54,0.838,0,0.828c11.089-0.203,22.193-0.755,33.271-1.311c10.922-0.548,21.856-0.95,32.774-1.561
				c6.287-0.351,12.578-0.679,18.87-0.93C451.238,61.597,451.237,60.032,450.244,60.09z"/>
		</g>
	</g>
	<g>
		<g>
			<g>
				<path style="fill:#75859C;" d="M52.988,44.701c-0.199,0.006-0.34,0.121-0.431,0.281c-0.151,0.079-0.274,0.238-0.3,0.457
					c-0.134,1.13-0.005,2.359,0.018,3.502c0.024,1.197,0.049,2.395,0.072,3.592c0.042,2.171-0.011,4.394,0.272,6.54
					c-0.003,0.113,0.008,0.225,0.038,0.331c0.008,0.056,0.011,0.114,0.02,0.17c0.051,0.319,0.333,0.406,0.536,0.296
					c9.86,0.081,19.721-0.384,29.58-0.491c9.861-0.106,19.762,0.065,29.612-0.512c0.268-0.016,0.329-0.412,0.191-0.612
					c0.016-0.036,0.042-0.057,0.049-0.105c0.151-1.038,0.019-2.14-0.01-3.191c-0.029-1.071-0.045-2.142-0.05-3.214
					c-0.004-1.071,0.002-2.143,0.013-3.214c0.011-1.085,0.143-2.264,0.04-3.339c-0.014-0.15-0.075-0.267-0.152-0.356
					c-0.008-0.171-0.094-0.338-0.266-0.344c-9.86-0.376-19.755-0.002-29.616,0.094C72.735,44.681,62.855,44.416,52.988,44.701z"/>
			</g>
			<g>
				<path style="fill:#75859C;" d="M43.636,71.299c-0.232,0.006-0.396,0.121-0.502,0.282c-0.175,0.079-0.319,0.238-0.35,0.458
					c-0.159,1.13-0.01,2.358,0.014,3.502c0.025,1.198,0.052,2.395,0.076,3.592c0.044,2.171-0.022,4.394,0.303,6.54
					c-0.004,0.113,0.008,0.225,0.044,0.33c0.01,0.056,0.012,0.114,0.022,0.17c0.059,0.319,0.386,0.405,0.622,0.295
					c11.462,0.06,22.926-0.426,34.387-0.553c11.464-0.127,22.973,0.024,34.424-0.575c0.311-0.016,0.384-0.413,0.224-0.613
					c0.019-0.036,0.049-0.057,0.057-0.105c0.178-1.038,0.026-2.14-0.005-3.191c-0.031-1.071-0.048-2.142-0.051-3.214
					c-0.003-1.071,0.007-2.143,0.022-3.214c0.015-1.085,0.171-2.265,0.054-3.339c-0.016-0.15-0.086-0.267-0.176-0.356
					c-0.008-0.171-0.108-0.338-0.309-0.343c-11.462-0.355-22.965,0.04-34.429,0.156C66.591,71.237,55.106,70.993,43.636,71.299z"/>
			</g>
		</g>
	</g>
	<g>
		<g>
			<path style="fill:#28324B;" d="M50.125,129.707c0,0,30.194,58.839,34.452,67.355c4.258,8.516,34.064,66.968,37.548,72.774
				c3.484,5.806,38.824,75.573,41.419,80.516c2.71,5.161,9.076,17.663,11.613,20.903c1.92,2.452,4.65,4.906,9.161,6.323
				c3.504,1.1,8.258,0.645,12.129-0.903c3.871-1.548,49.935-22.452,55.355-24.387c5.419-1.935,35.419-16.645,38.516-18.194
				s7.935-5.032,9.484-13.935c0.776-4.464-1.935-7.742-4.258-11.613c-2.323-3.871-37.935-60.387-39.871-64.258
				c-1.936-3.871-32.516-55.742-34.065-59.226c-1.548-3.484-26.322-46.839-27.871-49.548c-1.548-2.71-21.29-37.161-22.839-39.484
				s-3.484-5.032-8.129-6.581c-4.645-1.548-9.29-2.71-16.258-1.548c-6.968,1.161-28.258,7.742-33.677,8.903
				c-5.419,1.161-36.774,9.29-39.484,10.064c-2.71,0.774-10.742-0.677-13.839,0.484c-3.097,1.161-9,8.032-10.548,11.516
				S47.899,124.771,50.125,129.707z"/>
			<path style="fill:#485A87;" d="M53.995,123.901c0,0,30.194,58.839,34.452,67.355c4.258,8.516,34.064,66.968,37.548,72.774
				c3.484,5.806,38.824,75.573,41.419,80.516c2.71,5.161,9.076,17.664,11.613,20.903c1.92,2.452,4.65,4.906,9.161,6.323
				c3.504,1.1,8.258,0.645,12.129-0.903c3.871-1.548,49.936-22.452,55.355-24.387c5.419-1.936,32.516-15.871,35.613-17.419
				c3.097-1.548,6.968-4.645,8.516-8.903c1.548-4.258,0-10.452-2.323-14.323c-2.323-3.871-36-63.484-37.935-67.355
				s-32.516-55.742-34.064-59.226s-26.323-46.839-27.871-49.548c-1.548-2.71-21.29-37.161-22.839-39.484
				c-1.548-2.323-3.484-5.032-8.129-6.581s-9.29-2.71-16.258-1.548c-6.968,1.161-28.258,7.742-33.677,8.903
				c-5.419,1.161-36.774,9.29-39.484,10.065c-2.71,0.774-12.774,3.871-15.871,5.032s-6.452,4.387-8,7.871
				C51.802,117.449,52.834,120.03,53.995,123.901z"/>
			<path style="fill:#7D52FF;" d="M192.541,368.378c-1.183,0-2.273-0.147-3.153-0.423c-3.942-1.237-6.003-3.43-7.211-4.972
				c-1.947-2.486-7.09-12.367-9.854-17.676c-0.516-0.991-0.979-1.882-1.368-2.621c-0.706-1.346-4.05-7.91-8.284-16.22
				c-15.511-30.448-30.855-60.509-33.246-64.494c-3.396-5.659-33.293-64.289-37.401-72.506
				c-4.056-8.112-31.899-62.381-34.306-67.073l-0.189-0.623c-0.991-3.238-1.294-4.447-0.523-6.181c1.2-2.7,3.865-5.043,5.749-5.75
				c2.846-1.068,12.725-4.121,15.565-4.932c2.287-0.654,33.789-8.835,39.224-10c2.317-0.497,7.086-1.847,12.606-3.411
				c7.555-2.14,16.957-4.802,20.89-5.457c1.685-0.281,3.242-0.418,4.761-0.418c3.438,0,6.213,0.695,9.574,1.815
				c3.258,1.085,4.569,2.759,6.066,5.004c1.363,2.044,19.606,33.845,22.694,39.249c12.626,22.095,26.677,46.912,27.688,49.188
				c0.879,1.978,7.979,14.209,19.567,34.119c6.767,11.626,13.764,23.648,14.576,25.271c1.971,3.942,35.503,63.326,38.083,67.625
				c2.045,3.407,2.939,8.296,1.993,10.896c-1.12,3.081-4.116,5.478-6.546,6.693c-0.485,0.242-1.56,0.788-3.046,1.545
				c-6.873,3.496-27.789,14.136-32.124,15.685c-3.25,1.16-18.254,7.849-37.531,16.471c-8.891,3.978-16.569,7.412-17.964,7.97
				C196.861,367.943,194.626,368.378,192.541,368.378L192.541,368.378z"/>
			<path style="opacity:0.6;fill:#BE8FFF;" d="M115.258,210.615c-0.887-2.131-7.961-15.632-9.817-19.22
				c-1.857-3.587-12.76-26.663-15.67-31.785c-2.91-5.121-7.706-15.894-9.029-18.198c-1.323-2.304-4.24-7.942-4.52-9.486
				c-0.28-1.545,13.601-5.609,16.69-6.169c3.089-0.559,60.635-19.686,62.943-20.75c2.308-1.065,8.225-2.438,9.003-2.19
				c0,0,2.584,0.222,4.677,2.258c2.093,2.035,37.05,65.812,37.846,67.35c0.796,1.538,2.376,3.838,2.394,5.129
				c0.018,1.29-8.981,3.738-14.36,6.652c-5.379,2.914-41.354,14.255-46.224,16.646c-4.87,2.391-24.918,8.348-26.975,8.893
				C120.157,210.289,115.792,211.898,115.258,210.615z"/>
			<path style="opacity:0.6;fill:#BE8FFF;" d="M120.75,221.692c-0.438-0.888-0.007-1.95,0.926-2.281
				c5.597-1.982,22.933-8.109,26.384-9.188c4.129-1.29,20.645-8,22.193-8s2.323,0.258,3.355,1.807
				c1.032,1.548,21.678,38.71,23.742,40.774s20.387,35.871,20.645,36.903c0.258,1.032-1.032,2.323-2.064,2.839
				c-1.032,0.516-24,9.29-28.129,11.355c-4.129,2.064-22.194,10.839-23.742,10.323c-1.548-0.516-33.29-64.258-34.323-66.323
				C128.899,238.224,122.954,226.163,120.75,221.692z"/>
			<path style="opacity:0.6;fill:#BE8FFF;" d="M181.092,205.062c0,0-2.839-3.871-2.323-5.161c0.516-1.29,9.29-4.387,13.678-5.936
				c4.387-1.548,20.903-8.516,22.452-7.742c1.548,0.774,14.452,25.548,17.548,29.936c3.097,4.387,16.516,28.645,17.548,30.452
				c1.032,1.807,11.097,18.581,10.839,19.613c-0.258,1.032-8.258,4.129-10.581,5.419c-2.323,1.29-25.032,10.323-26.323,9.032
				c-1.29-1.29-16.258-29.936-18.064-32.516c-1.806-2.581-17.032-29.936-18.064-31.742
				C186.77,214.61,181.092,205.062,181.092,205.062z"/>
			<path style="opacity:0.75;fill:#DABFFF;" d="M195.413,202.596c0,0-1.461-1.992-1.195-2.656c0.266-0.664,4.782-2.258,7.04-3.055
				c2.258-0.797,10.758-4.383,11.555-3.985c0.797,0.398,7.438,13.149,9.032,15.407c1.594,2.258,8.501,14.743,9.032,15.673
				c0.531,0.93,5.711,9.563,5.579,10.094c-0.133,0.531-4.25,2.125-5.446,2.789c-1.195,0.664-12.884,5.313-13.548,4.649
				c-0.664-0.664-8.368-15.407-9.298-16.736c-0.93-1.328-8.766-15.407-9.298-16.337
				C198.335,207.511,195.413,202.596,195.413,202.596z"/>
			<path style="opacity:0.6;fill:#BE8FFF;" d="M167.931,311.901c0,0,38.452-16.516,43.613-18.065
				c5.161-1.548,33.807-12.903,38.194-14.968c4.387-2.064,12.387-6.452,13.935-6.71c1.548-0.258,5.161,8.258,8.258,11.613
				c3.097,3.355,9.548,16.774,11.355,18.839c1.806,2.065,6.193,7.226,5.677,8.516c-0.516,1.29-9.032,4.645-13.419,6.968
				c-4.387,2.323-31.226,13.161-34.064,14.452c-2.839,1.29-22.193,9.29-24.774,10.323c-2.581,1.032-23.484,10.581-24.774,10.581
				s-3.871-3.613-4.903-5.419c-1.032-1.806-9.29-18.323-11.097-20.903C174.124,324.546,167.415,313.707,167.931,311.901z"/>
			<path style="fill:#485A87;" d="M77.866,103.126c0,0,4.516,5.161,5.677,5.935c1.161,0.774,1.807,2.323,3.613,2.323
				c1.807,0,15.871-4,19.355-5.032c3.484-1.032,22.322-6.323,26.193-7.742c3.871-1.419,10.484-3.581,11-4.613
				c0.516-1.032,0.355-1.968,0.097-3.258c-0.258-1.29-1.419-3.226-1.677-3.613C141.866,86.739,77.866,103.126,77.866,103.126z"/>
			<path style="fill:#7F93C4;" d="M113.492,100.49c-1.03,0.813-2.625,0.509-3.564-0.68c-0.938-1.188-0.864-2.811,0.165-3.624
				c1.03-0.813,2.625-0.509,3.564,0.68C114.595,98.054,114.521,99.676,113.492,100.49z"/>
			<path style="fill:#7F93C4;" d="M119.444,97.775c-0.688,0.543-1.754,0.34-2.38-0.454c-0.627-0.794-0.577-1.878,0.11-2.421
				c0.688-0.543,1.754-0.34,2.38,0.454C120.181,96.148,120.132,97.232,119.444,97.775z"/>
			<path style="fill:#7F93C4;" d="M203.956,140.108c-2.28-4.53-4.939-8.864-7.365-13.316c-2.466-4.525-5.019-9.005-7.611-13.459
				c-4.825-8.292-15.067-25.157-15.151-25.253c-0.221-0.345-6.027-8.631-22.72-6.459c-5.073,0.66-10.012,2.124-14.936,3.465
				c-5.106,1.39-10.21,2.788-15.315,4.179c-2.872,0.782-5.744,1.564-8.616,2.346c-2.926,0.797-5.999,1.416-8.826,2.517
				c-0.32,0.125-0.198,0.567,0.141,0.512c2.513-0.407,4.994-1.247,7.448-1.915c2.393-0.652,4.787-1.304,7.18-1.955
				c4.867-1.325,9.735-2.644,14.601-3.968c9.203-2.505,18.987-6.015,28.64-4.281c4.522,0.813,8.862,2.874,12.02,6.26
				c4.842,8.379,9.872,16.65,14.716,25.029c2.538,4.391,5.068,8.787,7.636,13.16c2.609,4.443,4.944,9.049,7.604,13.461
				C203.617,140.787,204.141,140.474,203.956,140.108z"/>
			<path style="fill:#7F93C4;" d="M96.951,95.634c-3.089,0.794-6.178,1.588-9.268,2.382c-1.515,0.389-3.03,0.783-4.544,1.176
				c-1.406,0.365-3.101,0.584-4.377,1.285c-0.165,0.091-0.088,0.349,0.095,0.349c1.404,0.005,2.932-0.586,4.291-0.925
				c1.577-0.394,3.153-0.788,4.729-1.186c3.093-0.782,6.185-1.562,9.278-2.343C97.632,96.252,97.43,95.511,96.951,95.634z"/>
			<path style="opacity:0.75;fill:#DABFFF;" d="M129.297,150.819c1.67,1.499,4.178,1.616,5.798,0.664
				c1.968-1.156,2.777-3.952,1.954-6.462c-0.821-2.503-3.253-4.429-5.602-4.569c-2.335-0.139-4.306,1.599-4.759,3.947
				C126.271,146.56,127.391,149.402,129.297,150.819z M135.302,137.64c1.157-0.679,1.633-2.324,1.149-3.8
				c-0.483-1.472-1.913-2.605-3.294-2.687c-1.373-0.082-2.532,0.94-2.799,2.321c-0.245,1.271,0.414,2.942,1.534,3.775
				C132.874,138.131,134.349,138.2,135.302,137.64z M130.028,124.331c0.795-0.467,1.122-1.597,0.789-2.611
				c-0.331-1.011-1.314-1.789-2.263-1.846c-0.943-0.056-1.74,0.646-1.923,1.594c-0.169,0.873,0.284,2.021,1.054,2.593
				C128.36,124.668,129.373,124.715,130.028,124.331z M121.777,137.918c0.893-0.524,1.26-1.793,0.887-2.932
				c-0.373-1.136-1.476-2.01-2.542-2.073c-1.06-0.063-1.954,0.726-2.16,1.791c-0.189,0.981,0.319,2.27,1.184,2.913
				C119.903,138.296,121.041,138.349,121.777,137.918z M113.899,130.084c0.614-0.36,0.866-1.232,0.609-2.014
				c-0.256-0.78-1.014-1.381-1.746-1.424c-0.728-0.043-1.342,0.498-1.484,1.23c-0.13,0.674,0.219,1.559,0.813,2.001
				C112.612,130.344,113.394,130.381,113.899,130.084z M144.63,130.953c0.877-0.06,1.742-0.723,1.877-1.675
				c0.245-0.981-0.233-2.28-1.053-2.953c-0.89-0.731-2.137-0.867-2.933-0.239c-0.801,0.632-1.077,1.927-0.597,3.03
				C142.407,130.221,143.564,131.025,144.63,130.953z M145.517,120.448c0.602-0.041,1.196-0.497,1.289-1.151
				c0.169-0.674-0.16-1.566-0.723-2.029c-0.612-0.502-1.468-0.596-2.015-0.164c-0.55,0.434-0.74,1.324-0.41,2.081
				C143.99,119.946,144.785,120.498,145.517,120.448z M137.899,180.213c-0.877,0.06-1.742,0.723-1.877,1.676
				c-0.245,0.981,0.233,2.28,1.053,2.953c0.89,0.731,2.137,0.867,2.933,0.239c0.801-0.632,1.077-1.927,0.597-3.03
				C140.122,180.944,138.965,180.14,137.899,180.213z M137.012,190.717c-0.602,0.041-1.196,0.497-1.289,1.151
				c-0.169,0.674,0.16,1.566,0.723,2.029c0.612,0.502,1.468,0.596,2.015,0.164c0.55-0.434,0.74-1.324,0.41-2.081
				C138.539,191.22,137.744,190.667,137.012,190.717z M160.752,173.248c-0.893,0.524-1.26,1.793-0.887,2.932
				c0.372,1.136,1.476,2.01,2.542,2.073c1.06,0.063,1.954-0.725,2.16-1.791c0.189-0.981-0.319-2.27-1.184-2.913
				C162.625,172.869,161.488,172.816,160.752,173.248z M168.63,181.081c-0.613,0.36-0.866,1.232-0.609,2.014
				c0.256,0.78,1.014,1.381,1.746,1.424c0.728,0.043,1.342-0.498,1.484-1.23c0.13-0.674-0.219-1.559-0.813-2.001
				C169.917,180.821,169.135,180.784,168.63,181.081z M122.983,153.08c1.073-0.401,1.65-1.765,1.526-3.014
				c-0.151-1.517-1.337-2.97-2.724-3.406c-1.382-0.434-2.821,0.241-3.376,1.508c-0.552,1.26-0.12,2.987,0.923,4.08
				C120.293,153.255,121.901,153.642,122.983,153.08z M110.638,149.076c0.737-0.275,1.133-1.213,1.048-2.07
				c-0.104-1.042-0.918-2.04-1.871-2.34c-0.95-0.298-1.938,0.166-2.319,1.036c-0.379,0.866-0.082,2.051,0.634,2.803
				C108.79,149.196,109.895,149.462,110.638,149.076z M150.679,137.727c-0.801,1.102-0.747,2.901,0.17,4.184
				c0.755,1.057,2.144,1.822,3.267,1.553c1.241-0.146,2.25-1.331,2.323-2.652c0.079-1.435-0.758-3.038-2.056-3.735
				C153.077,136.377,151.477,136.628,150.679,137.727z M158.795,129.611c-0.55,0.757-0.513,1.993,0.117,2.874
				c0.518,0.726,1.473,1.251,2.244,1.067c0.852-0.1,1.546-0.914,1.596-1.822c0.054-0.986-0.521-2.087-1.412-2.565
				C160.443,128.684,159.344,128.856,158.795,129.611z M131.749,169.057c-0.755-1.057-2.144-1.822-3.267-1.553
				c-1.241,0.146-2.25,1.331-2.323,2.652c-0.079,1.435,0.758,3.038,2.056,3.735c1.305,0.7,2.905,0.45,3.703-0.649
				C132.719,172.139,132.665,170.34,131.749,169.057z M121.441,177.415c-0.852,0.1-1.546,0.914-1.596,1.822
				c-0.054,0.986,0.521,2.087,1.412,2.565c0.897,0.481,1.996,0.309,2.544-0.446c0.55-0.757,0.513-1.993-0.117-2.874
				C123.167,177.757,122.213,177.231,121.441,177.415z M159.701,158.116c-1.073,0.401-1.65,1.765-1.526,3.014
				c0.151,1.517,1.337,2.97,2.724,3.406c1.383,0.434,2.821-0.241,3.376-1.508c0.552-1.26,0.12-2.986-0.923-4.08
				C162.392,157.941,160.783,157.554,159.701,158.116z M172.046,162.12c-0.737,0.275-1.133,1.213-1.048,2.07
				c0.104,1.042,0.918,2.04,1.871,2.34c0.95,0.298,1.938-0.166,2.319-1.036c0.379-0.866,0.082-2.051-0.634-2.803
				C173.895,162,172.789,161.734,172.046,162.12z M147.768,173.705c-1.158,0.68-1.633,2.324-1.149,3.8
				c0.483,1.472,1.913,2.605,3.294,2.687c1.373,0.082,2.532-0.94,2.799-2.321c0.245-1.271-0.413-2.942-1.534-3.775
				C150.195,173.215,148.721,173.146,147.768,173.705z M153.042,187.014c-0.795,0.467-1.122,1.596-0.789,2.611
				c0.332,1.011,1.314,1.789,2.263,1.846c0.943,0.056,1.74-0.646,1.923-1.594c0.169-0.873-0.284-2.021-1.054-2.593
				C154.71,186.678,153.697,186.63,153.042,187.014z M116.821,159.54c-1.312,0.311-2.168,1.702-2.044,3.192
				c0.123,1.481,1.251,2.89,2.586,3.381c1.229,0.451,2.702-0.023,3.322-1.12c0.685-0.94,0.536-2.533-0.128-3.651
				C119.751,159.984,118.137,159.227,116.821,159.54z M108.684,163.167c-0.901,0.214-1.489,1.169-1.404,2.193
				c0.084,1.018,0.859,1.985,1.776,2.322c0.844,0.31,1.856-0.015,2.282-0.769c0.471-0.646,0.368-1.74-0.088-2.508
				C110.696,163.472,109.588,162.953,108.684,163.167z M168.192,148.645c-0.123-1.482-1.251-2.89-2.586-3.381
				c-1.229-0.451-2.702,0.023-3.322,1.12c-0.685,0.94-0.536,2.534,0.128,3.651c0.806,1.357,2.419,2.114,3.735,1.802
				C167.459,151.526,168.315,150.135,168.192,148.645z M174.408,143.544c-0.844-0.31-1.856,0.016-2.282,0.77
				c-0.47,0.646-0.368,1.74,0.088,2.508c0.554,0.932,1.662,1.452,2.566,1.238c0.901-0.214,1.489-1.169,1.404-2.193
				C176.1,144.848,175.325,143.88,174.408,143.544z M125.318,156.782c-0.417,2.161,0.703,5.003,2.609,6.42
				c1.67,1.499,4.178,1.616,5.798,0.665c1.968-1.156,2.778-3.952,1.954-6.462c-0.821-2.503-3.253-4.429-5.602-4.569
				C127.742,152.697,125.771,154.434,125.318,156.782z M145.189,166.376c-0.821-2.503-3.253-4.429-5.602-4.569
				c-2.335-0.139-4.306,1.599-4.759,3.947c-0.417,2.161,0.703,5.003,2.609,6.42c1.67,1.499,4.178,1.616,5.798,0.665
				C145.203,171.682,146.012,168.886,145.189,166.376z M150.315,158.441c-2.335-0.139-4.306,1.599-4.759,3.947
				c-0.417,2.161,0.703,5.003,2.609,6.42c1.67,1.499,4.178,1.616,5.798,0.665c1.968-1.156,2.777-3.952,1.954-6.462
				C155.096,160.508,152.664,158.581,150.315,158.441z M146.991,150.177c-0.417,2.161,0.703,5.003,2.609,6.42
				c1.67,1.499,4.178,1.616,5.798,0.665c1.968-1.156,2.777-3.952,1.954-6.462c-0.821-2.503-3.253-4.429-5.602-4.569
				C149.415,146.091,147.444,147.829,146.991,150.177z M137.562,141.085c-0.417,2.161,0.703,5.003,2.609,6.42
				c1.67,1.499,4.178,1.616,5.798,0.665c1.968-1.156,2.777-3.952,1.954-6.462c-0.821-2.503-3.253-4.429-5.602-4.569
				C139.986,137,138.016,138.737,137.562,141.085z"/>
			<g>
				<path style="opacity:0.75;fill:#DABFFF;" d="M175.136,215.518c0.018-0.057,0.026-0.118,0.01-0.18
					c-0.113-0.434-0.403-0.864-0.605-1.263c-0.219-0.433-1.932-3.882-2.131-3.874c-0.148-0.081-14.686,6.133-21.915,8.942
					c-3.628,1.41-7.271,2.778-10.922,4.125c-3.428,1.265-10.71,3.833-10.735,3.99c-0.013,0.006-0.026,0.012-0.039,0.018
					c-0.208,0.104,2.46,5.625,2.667,5.583c0.071-0.015,0.142-0.035,0.213-0.05c0.077,0.014,0.153-0.004,0.219-0.051
					c3.605-0.8,7.16-2.381,10.616-3.636c3.734-1.356,7.448-2.765,11.15-4.207c7.172-2.794,14.499-5.518,21.416-8.905
					C175.28,215.914,175.261,215.659,175.136,215.518z"/>
				<path style="opacity:0.75;fill:#DABFFF;" d="M175.065,225.24c-0.627-1.084-1.326-2.215-1.879-3.39
					c-4.88,2.022-12.992,5.427-17.833,7.308c-3.628,1.41-7.271,2.779-10.922,4.125c-3.428,1.264-10.71,3.833-10.735,3.99
					c-0.013,0.006-0.026,0.012-0.039,0.018c-0.208,0.104,2.46,5.625,2.667,5.583c0.071-0.015,0.142-0.035,0.213-0.05
					c0.077,0.014,0.153-0.004,0.22-0.051c3.605-0.8,7.16-2.381,10.616-3.635c3.734-1.356,7.448-2.766,11.15-4.208
					c5.993-2.335,12.091-4.626,17.971-7.29C176.013,226.843,175.531,226.046,175.065,225.24z"/>
				<path style="opacity:0.75;fill:#DABFFF;" d="M184.853,235.546c0.018-0.057,0.026-0.118,0.01-0.18
					c-0.113-0.434-0.403-0.864-0.605-1.263c-0.219-0.433-1.932-3.882-2.131-3.874c-0.148-0.081-14.686,6.133-21.915,8.942
					c-3.628,1.41-7.271,2.778-10.922,4.125c-3.428,1.264-10.71,3.833-10.735,3.99c-0.013,0.006-0.026,0.012-0.039,0.018
					c-0.208,0.104,2.46,5.625,2.667,5.583c0.071-0.014,0.142-0.035,0.213-0.05c0.077,0.014,0.153-0.004,0.22-0.051
					c3.604-0.8,7.16-2.381,10.616-3.636c3.734-1.356,7.448-2.765,11.15-4.208c7.172-2.794,14.499-5.518,21.416-8.905
					C184.997,235.943,184.978,235.687,184.853,235.546z"/>
				<path style="opacity:0.75;fill:#DABFFF;" d="M178.107,248.676c-0.749-1.381-1.549-2.75-2.243-4.165
					c-3.692,1.529-7.531,3.104-10.298,4.179c-3.628,1.41-7.271,2.778-10.922,4.125c-3.428,1.264-10.71,3.833-10.735,3.99
					c-0.013,0.006-0.026,0.012-0.039,0.018c-0.208,0.103,2.46,5.625,2.667,5.583c0.071-0.015,0.142-0.034,0.213-0.05
					c0.077,0.014,0.153-0.004,0.22-0.051c3.605-0.8,7.16-2.381,10.616-3.636c3.734-1.356,7.448-2.765,11.15-4.207
					c3.432-1.337,6.899-2.66,10.34-4.045C178.751,249.839,178.424,249.26,178.107,248.676z"/>
				<path style="opacity:0.75;fill:#DABFFF;" d="M195.958,254.881c0.018-0.058,0.026-0.118,0.01-0.18
					c-0.113-0.434-0.403-0.863-0.605-1.263c-0.219-0.433-1.932-3.882-2.131-3.874c-0.148-0.081-14.686,6.133-21.915,8.942
					c-3.628,1.41-7.271,2.778-10.922,4.125c-3.428,1.265-10.71,3.833-10.735,3.99c-0.013,0.006-0.026,0.012-0.039,0.018
					c-0.208,0.104,2.46,5.625,2.667,5.583c0.071-0.014,0.142-0.034,0.213-0.05c0.077,0.014,0.153-0.004,0.22-0.051
					c3.605-0.8,7.16-2.381,10.616-3.636c3.734-1.356,7.449-2.765,11.15-4.207c7.172-2.794,14.499-5.518,21.416-8.905
					C196.101,255.277,196.083,255.021,195.958,254.881z"/>
			</g>
		</g>
	</g>
	<g>
		<g>
			<g>
				
					<ellipse transform="matrix(0.9667 -0.2558 0.2558 0.9667 -39.7943 73.3117)" style="fill:#B56B09;" cx="261.891" cy="189.613" rx="34.416" ry="38.8"/>
				
					<ellipse transform="matrix(0.9667 -0.2558 0.2558 0.9667 -40.4145 72.42)" style="fill:#FFB421;" cx="258.149" cy="191.549" rx="34.416" ry="38.8"/>
				
					<ellipse transform="matrix(0.9667 -0.2558 0.2558 0.9667 -40.4142 72.4192)" style="fill:#FF970D;" cx="258.149" cy="191.549" rx="26.706" ry="30.108"/>
				<path style="opacity:0.75;fill:#FFB421;" d="M251.13,196.685c1.181-0.341,1.959-1.704,1.982-2.995
					c0.028-1.568-1.044-3.141-2.453-3.68c-1.405-0.538-3.005,0.06-3.747,1.325c-0.738,1.258-0.495,3.06,0.47,4.253
					C248.27,196.686,249.919,197.191,251.13,196.685z M246.711,188.044c0.017-0.922-0.614-1.847-1.442-2.164
					c-0.826-0.316-1.767,0.035-2.204,0.779c-0.434,0.74-0.291,1.8,0.276,2.501c0.522,0.646,1.492,0.943,2.204,0.645
					C246.24,189.605,246.697,188.803,246.711,188.044z M238.978,185.694c0.011-0.634-0.422-1.269-0.991-1.487
					c-0.567-0.217-1.214,0.024-1.514,0.535c-0.298,0.508-0.2,1.236,0.19,1.718c0.359,0.444,1.025,0.647,1.514,0.443
					C238.655,186.766,238.969,186.215,238.978,185.694z M242.941,195.761c0.013-0.712-0.474-1.425-1.113-1.67
					c-0.637-0.244-1.364,0.027-1.701,0.602c-0.335,0.571-0.225,1.389,0.213,1.93c0.403,0.498,1.151,0.727,1.701,0.498
					C242.577,196.966,242.93,196.347,242.941,195.761z M237.013,197.063c0.009-0.489-0.325-0.979-0.764-1.147
					c-0.438-0.168-0.937,0.019-1.168,0.413c-0.23,0.392-0.154,0.954,0.146,1.326c0.277,0.342,0.791,0.5,1.169,0.342
					C236.764,197.89,237.006,197.465,237.013,197.063z M246.279,180.126c0.225-0.517,0.165-1.268-0.241-1.725
					c-0.387-0.53-1.131-0.78-1.682-0.588c-0.598,0.209-1.021,0.856-0.957,1.554c0.064,0.703,0.589,1.376,1.242,1.546
					C245.296,181.084,246.006,180.755,246.279,180.126z M241.632,175.432c0.155-0.355,0.113-0.871-0.165-1.185
					c-0.266-0.364-0.777-0.536-1.155-0.404c-0.411,0.143-0.701,0.588-0.658,1.068c0.044,0.483,0.404,0.945,0.853,1.062
					C240.957,176.09,241.444,175.863,241.632,175.432z M267.329,203.588c-0.225,0.517-0.165,1.268,0.241,1.725
					c0.387,0.53,1.131,0.78,1.682,0.588c0.598-0.209,1.021-0.856,0.957-1.554c-0.064-0.703-0.589-1.376-1.242-1.546
					C268.312,202.63,267.603,202.96,267.329,203.588z M271.977,208.283c-0.155,0.355-0.113,0.871,0.165,1.185
					c0.266,0.364,0.777,0.536,1.155,0.404c0.411-0.143,0.701-0.588,0.657-1.068c-0.044-0.483-0.404-0.945-0.853-1.062
					C272.651,207.625,272.164,207.851,271.977,208.283z M270.668,187.953c-0.013,0.712,0.474,1.425,1.113,1.67
					c0.637,0.244,1.364-0.027,1.701-0.602c0.335-0.571,0.225-1.389-0.213-1.93c-0.403-0.498-1.152-0.727-1.701-0.498
					C271.031,186.749,270.678,187.367,270.668,187.953z M276.595,186.652c-0.009,0.489,0.325,0.979,0.764,1.147
					c0.438,0.168,0.937-0.019,1.168-0.413c0.23-0.392,0.154-0.954-0.147-1.326c-0.277-0.342-0.791-0.5-1.168-0.342
					C276.845,185.824,276.602,186.249,276.595,186.652z M250.365,201.139c0.122-0.763-0.348-1.633-0.967-2.062
					c-0.752-0.521-1.772-0.435-2.375,0.171c-0.601,0.604-0.701,1.683-0.269,2.501c0.429,0.814,1.359,1.26,2.17,1.111
					C249.671,202.722,250.316,201.972,250.365,201.139z M244.937,206.482c0.084-0.524-0.239-1.122-0.664-1.417
					c-0.516-0.358-1.217-0.299-1.631,0.118c-0.413,0.415-0.481,1.156-0.185,1.718c0.295,0.559,0.934,0.866,1.491,0.763
					C244.46,207.57,244.903,207.055,244.937,206.482z M251.185,179.43c0.284,0.891,1.138,1.579,2.002,1.576
					c0.711-0.002,1.468-0.478,1.667-1.217c0.29-0.756,0.027-1.797-0.568-2.366c-0.647-0.618-1.637-0.787-2.336-0.335
					C251.246,177.542,250.902,178.542,251.185,179.43z M249.737,171.624c0.195,0.612,0.782,1.085,1.375,1.083
					c0.488-0.001,1.009-0.328,1.145-0.836c0.199-0.519,0.019-1.235-0.39-1.625c-0.445-0.424-1.124-0.541-1.605-0.23
					C249.779,170.327,249.543,171.014,249.737,171.624z M260.349,202.591c-0.711,0.002-1.468,0.478-1.667,1.217
					c-0.29,0.756-0.027,1.797,0.568,2.366c0.647,0.618,1.637,0.787,2.336,0.336c0.703-0.454,1.047-1.454,0.765-2.342
					C262.068,203.276,261.213,202.588,260.349,202.591z M261.279,211.727c-0.199,0.519-0.019,1.235,0.39,1.625
					c0.444,0.424,1.124,0.541,1.604,0.23c0.483-0.312,0.72-0.999,0.525-1.609c-0.195-0.612-0.782-1.085-1.375-1.083
					C261.936,210.892,261.415,211.219,261.279,211.727z M263.302,182.5c-0.122,0.763,0.348,1.633,0.967,2.062
					c0.751,0.521,1.772,0.434,2.375-0.171c0.601-0.604,0.701-1.683,0.269-2.501c-0.429-0.814-1.359-1.26-2.17-1.111
					C263.997,180.917,263.352,181.667,263.302,182.5z M268.73,177.157c-0.084,0.524,0.239,1.122,0.664,1.416
					c0.516,0.358,1.217,0.299,1.631-0.118c0.413-0.415,0.481-1.156,0.185-1.718c-0.295-0.559-0.934-0.866-1.491-0.763
					C269.207,176.069,268.765,176.585,268.73,177.157z M267.138,195.438c-0.017,0.922,0.614,1.847,1.442,2.164
					c0.826,0.316,1.767-0.035,2.204-0.779c0.434-0.74,0.291-1.8-0.276-2.501c-0.522-0.646-1.492-0.943-2.204-0.645
					C267.609,193.877,267.151,194.679,267.138,195.438z M274.87,197.788c-0.011,0.634,0.422,1.269,0.991,1.487
					c0.568,0.217,1.214-0.024,1.514-0.535c0.298-0.508,0.2-1.236-0.19-1.718c-0.359-0.444-1.025-0.648-1.514-0.443
					C275.194,196.716,274.879,197.267,274.87,197.788z M251.604,207.184c-0.233,0.862,0.169,1.899,0.9,2.425
					c0.727,0.523,1.71,0.451,2.323-0.104c0.565-0.511,0.769-1.529,0.435-2.316c-0.241-0.761-1.028-1.313-1.741-1.386
					C252.655,205.714,251.837,206.32,251.604,207.184z M250.95,213.21c-0.16,0.592,0.116,1.305,0.618,1.666
					c0.499,0.359,1.174,0.31,1.596-0.071c0.388-0.351,0.528-1.05,0.299-1.591c-0.166-0.523-0.706-0.902-1.196-0.952
					C251.673,212.2,251.111,212.616,250.95,213.21z M261.33,173.942c-0.727-0.523-1.71-0.451-2.323,0.104
					c-0.565,0.511-0.769,1.529-0.435,2.316c0.241,0.761,1.028,1.313,1.741,1.386c0.866,0.089,1.684-0.516,1.918-1.381
					C262.463,175.505,262.061,174.467,261.33,173.942z M260.741,168.408c-0.388,0.351-0.528,1.05-0.299,1.591
					c0.166,0.523,0.706,0.902,1.196,0.952c0.595,0.061,1.157-0.355,1.317-0.949c0.16-0.592-0.116-1.305-0.618-1.666
					C261.838,167.978,261.163,168.027,260.741,168.408z M252.766,201.304c0.888,1.098,2.538,1.603,3.749,1.097
					c1.181-0.341,1.959-1.704,1.982-2.995c0.028-1.569-1.044-3.141-2.453-3.68c-1.405-0.538-3.005,0.06-3.747,1.325
					C251.558,198.309,251.801,200.112,252.766,201.304z M262.973,193.961c-1.405-0.538-3.005,0.06-3.747,1.325
					c-0.738,1.258-0.495,3.06,0.47,4.253c0.888,1.098,2.538,1.603,3.749,1.097c1.181-0.341,1.959-1.704,1.982-2.995
					C265.454,196.073,264.382,194.501,262.973,193.961z M260.748,187.909c-0.738,1.258-0.495,3.06,0.47,4.253
					c0.888,1.098,2.538,1.603,3.749,1.097c1.181-0.341,1.959-1.704,1.982-2.995c0.028-1.569-1.044-3.141-2.453-3.68
					C263.091,186.045,261.49,186.644,260.748,187.909z M255.932,186.477c0.888,1.098,2.538,1.603,3.749,1.097
					c1.181-0.341,1.959-1.704,1.982-2.995c0.028-1.569-1.044-3.141-2.453-3.68c-1.405-0.538-3.005,0.06-3.748,1.325
					C254.724,183.482,254.967,185.285,255.932,186.477z M248.97,188.148c0.888,1.098,2.538,1.603,3.749,1.097
					c1.181-0.341,1.959-1.704,1.982-2.995c0.028-1.569-1.044-3.141-2.453-3.68c-1.405-0.538-3.005,0.06-3.748,1.325
					C247.762,185.153,248.005,186.956,248.97,188.148z"/>
				<path style="fill:#B56B09;" d="M279.685,174.777c-3.236-5.93-8.731-10.441-15.189-12.441c-7-2.168-14.969-1.15-21.161,2.759
					c-0.382,0.241-0.041,0.83,0.355,0.607c6.243-3.516,13.662-4.565,20.549-2.432c6.2,1.92,11.497,6.324,14.691,11.948
					C279.208,175.709,279.956,175.271,279.685,174.777z"/>
				<path style="fill:#FFE12C;" d="M246.387,216.611c-2.372-1.322-4.504-2.992-6.396-4.938c-0.941-0.968-1.835-1.993-2.615-3.096
					c-0.392-0.554-0.777-1.115-1.138-1.69c-0.331-0.527-0.591-1.159-1.002-1.625c-0.166-0.188-0.435,0.016-0.392,0.228
					c0.129,0.627,0.552,1.259,0.856,1.818c0.34,0.623,0.705,1.229,1.107,1.814c0.772,1.126,1.598,2.205,2.525,3.208
					c1.889,2.043,4.137,3.763,6.565,5.117C246.443,217.751,246.932,216.915,246.387,216.611z"/>
				<path style="fill:#FFE12C;" d="M269.988,218.539c-3.307,1.551-6.738,2.453-10.412,2.424c-1.774-0.014-3.534-0.237-5.256-0.662
					c-0.825-0.204-1.64-0.445-2.438-0.738c-0.751-0.276-1.497-0.633-2.3-0.709c-0.181-0.017-0.241,0.219-0.138,0.333
					c1.094,1.216,3.252,1.728,4.78,2.106c1.802,0.445,3.668,0.671,5.524,0.679c3.673,0.017,7.503-0.804,10.723-2.611
					C271.012,219.057,270.536,218.282,269.988,218.539z"/>
				<path style="fill:#FFE12C;" d="M285.649,168.683c-2.656-3.767-5.971-7.032-9.725-9.701c-1.91-1.358-3.934-2.544-6.042-3.567
					c-0.992-0.481-2-0.923-3.034-1.305c-0.695-0.257-1.987-0.958-2.679-0.461c-0.017,0.012-0.031,0.034-0.023,0.056
					c0.232,0.675,1.217,0.854,1.822,1.089c1.103,0.428,2.195,0.895,3.265,1.401c2.015,0.953,3.948,2.086,5.777,3.359
					c3.784,2.634,7.062,5.914,9.789,9.625C285.168,169.682,286.017,169.205,285.649,168.683z"/>
			</g>
		</g>
		<g>
			<g>
				<path style="fill:#FFB421;" d="M381.931,224.991c-0.102-0.125-0.199-0.254-0.302-0.378c-3.844-4.628-9.135-8.04-14.79-10.111
					c-4.767-1.921-9.969-2.989-15.423-2.989c-8.332,0-16.082,2.476-22.57,6.721c-0.037,0.021-0.076,0.041-0.113,0.062
					c-4.644,2.683-8.698,6.459-11.819,10.823c-5.527,7.73-7.747,17.293-6.673,26.63c1.114,15.775,11.087,29.095,24.972,35.03
					c2.763,1.452,5.713,2.493,8.628,3.022c4.297,0.781,8.584,0.907,12.899,0.146c1.112-0.196,2.209-0.452,3.291-0.761
					c18.668-3.963,32.675-20.535,32.675-40.384C392.705,242.089,388.623,232.329,381.931,224.991z"/>
				<path style="fill:#FF970D;" d="M373.603,232.612c-0.074-0.091-0.145-0.184-0.22-0.275c-2.798-3.368-6.648-5.851-10.764-7.358
					c-3.469-1.398-7.255-2.175-11.224-2.175c-6.064,0-11.704,1.802-16.426,4.891c-0.027,0.015-0.055,0.03-0.082,0.045
					c-3.38,1.953-6.33,4.701-8.601,7.877c-4.022,5.626-5.638,12.585-4.856,19.381c0.81,11.48,8.069,21.174,18.173,25.493
					c2.011,1.057,4.158,1.814,6.279,2.199c3.127,0.568,6.247,0.66,9.387,0.106c0.809-0.143,1.608-0.329,2.395-0.554
					c13.586-2.884,23.78-14.945,23.78-29.39C381.444,245.056,378.473,237.953,373.603,232.612z"/>
				<path style="opacity:0.75;fill:#FFB421;" d="M344.601,247.89c0.692,1.118,2.244,1.609,3.494,1.354
					c1.518-0.309,2.699-1.729,2.784-3.267c0.084-1.533-0.986-3.018-2.432-3.495c-1.438-0.473-3.097,0.16-3.947,1.39
					C343.717,245.005,343.741,246.777,344.601,247.89z M351.551,241.571c0.893-0.182,1.587-1.017,1.637-1.921
					c0.049-0.901-0.58-1.775-1.43-2.055c-0.846-0.278-1.822,0.094-2.321,0.817c-0.46,0.666-0.446,1.708,0.06,2.363
					C349.904,241.432,350.816,241.721,351.551,241.571z M351.424,233.265c0.613-0.125,1.091-0.699,1.125-1.32
					c0.034-0.619-0.398-1.219-0.982-1.412c-0.581-0.191-1.251,0.064-1.595,0.561c-0.316,0.457-0.306,1.173,0.041,1.623
					C350.293,233.17,350.92,233.368,351.424,233.265z M342.962,239.43c0.689-0.141,1.225-0.785,1.263-1.482
					c0.038-0.695-0.447-1.37-1.104-1.586c-0.653-0.215-1.406,0.072-1.791,0.631c-0.355,0.514-0.344,1.318,0.046,1.823
					C341.69,239.323,342.395,239.546,342.962,239.43z M339.879,233.732c0.473-0.096,0.841-0.539,0.868-1.018
					c0.026-0.478-0.307-0.941-0.758-1.089c-0.448-0.148-0.966,0.05-1.23,0.433c-0.244,0.353-0.236,0.906,0.032,1.252
					C339.006,233.658,339.49,233.811,339.879,233.732z M359.035,239.43c0.567,0.116,1.271-0.107,1.585-0.614
					c0.39-0.505,0.401-1.309,0.046-1.823c-0.385-0.558-1.138-0.846-1.791-0.631c-0.656,0.216-1.142,0.89-1.104,1.586
					C357.81,238.645,358.346,239.29,359.035,239.43z M362.117,233.732c0.39,0.079,0.873-0.074,1.089-0.422
					c0.268-0.347,0.275-0.899,0.032-1.252c-0.265-0.383-0.782-0.581-1.23-0.433c-0.451,0.148-0.784,0.611-0.758,1.089
					C361.276,233.193,361.644,233.635,362.117,233.732z M342.962,265.716c-0.567-0.116-1.271,0.107-1.585,0.614
					c-0.39,0.505-0.401,1.309-0.046,1.823c0.385,0.558,1.138,0.846,1.791,0.631c0.656-0.216,1.142-0.89,1.104-1.586
					C344.187,266.501,343.65,265.857,342.962,265.716z M339.879,271.415c-0.39-0.079-0.873,0.074-1.089,0.422
					c-0.268,0.347-0.275,0.899-0.032,1.252c0.265,0.383,0.782,0.581,1.23,0.433c0.451-0.148,0.784-0.612,0.758-1.089
					C340.721,271.954,340.352,271.511,339.879,271.415z M359.035,265.716c-0.689,0.14-1.225,0.785-1.263,1.482
					c-0.038,0.695,0.447,1.37,1.104,1.586c0.653,0.215,1.406-0.072,1.791-0.631c0.355-0.514,0.344-1.318-0.046-1.823
					C360.306,265.823,359.602,265.601,359.035,265.716z M362.117,271.415c-0.473,0.096-0.841,0.539-0.868,1.018
					c-0.026,0.478,0.307,0.941,0.758,1.089c0.448,0.148,0.966-0.05,1.23-0.433c0.244-0.353,0.236-0.906-0.032-1.252
					C362.99,271.488,362.507,271.335,362.117,271.415z M340.08,248.077c0.772-0.041,1.464-0.703,1.686-1.419
					c0.269-0.87-0.129-1.881-0.898-2.359c-0.767-0.476-1.835-0.344-2.49,0.267c-0.651,0.608-0.793,1.643-0.398,2.428
					C338.342,247.718,339.263,248.207,340.08,248.077z M333.263,243.753c0.53-0.028,1.006-0.483,1.158-0.975
					c0.185-0.598-0.089-1.292-0.617-1.62c-0.527-0.327-1.261-0.237-1.71,0.183c-0.447,0.418-0.545,1.128-0.274,1.668
					C332.069,243.506,332.702,243.842,333.263,243.753z M361.22,244.228c-0.769,0.478-1.167,1.488-0.898,2.359
					c0.222,0.716,0.913,1.378,1.685,1.419c0.817,0.129,1.738-0.359,2.101-1.083c0.395-0.786,0.252-1.82-0.398-2.428
					C363.055,243.884,361.987,243.752,361.22,244.228z M368.284,241.087c-0.528,0.328-0.802,1.022-0.617,1.62
					c0.152,0.492,0.627,0.947,1.158,0.975c0.561,0.089,1.194-0.247,1.443-0.744c0.271-0.54,0.173-1.25-0.274-1.668
					C369.544,240.85,368.81,240.76,368.284,241.087z M341.766,258.461c-0.222-0.716-0.913-1.378-1.686-1.419
					c-0.817-0.129-1.738,0.359-2.101,1.083c-0.395,0.786-0.252,1.82,0.398,2.428c0.654,0.611,1.723,0.743,2.49,0.267
					C341.637,260.342,342.035,259.331,341.766,258.461z M333.263,261.366c-0.561-0.089-1.194,0.247-1.443,0.744
					c-0.271,0.54-0.173,1.25,0.274,1.668c0.449,0.42,1.183,0.511,1.71,0.183c0.528-0.328,0.802-1.022,0.617-1.62
					C334.268,261.849,333.793,261.394,333.263,261.366z M362.007,257.113c-0.772,0.041-1.464,0.703-1.685,1.419
					c-0.269,0.87,0.129,1.881,0.898,2.359c0.767,0.476,1.835,0.344,2.49-0.267c0.65-0.608,0.793-1.643,0.398-2.428
					C363.745,257.472,362.824,256.983,362.007,257.113z M368.824,261.437c-0.53,0.028-1.006,0.483-1.158,0.975
					c-0.185,0.598,0.089,1.292,0.617,1.62c0.527,0.327,1.261,0.237,1.71-0.183c0.447-0.418,0.545-1.128,0.274-1.668
					C370.018,261.684,369.386,261.348,368.824,261.437z M350.743,263.768c-0.893,0.182-1.587,1.017-1.637,1.921
					c-0.049,0.901,0.58,1.775,1.43,2.055c0.846,0.278,1.822-0.094,2.321-0.817c0.46-0.666,0.446-1.708-0.06-2.363
					C352.391,263.906,351.478,263.618,350.743,263.768z M350.87,272.073c-0.613,0.125-1.09,0.699-1.125,1.32
					c-0.034,0.619,0.398,1.219,0.983,1.412c0.581,0.191,1.251-0.064,1.594-0.561c0.316-0.457,0.306-1.173-0.041-1.623
					C352.001,272.169,351.374,271.97,350.87,272.073z M334.646,250.628c-0.902-0.049-1.775,0.58-2.055,1.43
					c-0.278,0.846,0.094,1.822,0.817,2.321c0.666,0.46,1.708,0.446,2.363-0.06c0.657-0.407,0.946-1.32,0.796-2.055
					C336.385,251.373,335.55,250.678,334.646,250.628z M328.647,251.268c-0.619-0.034-1.219,0.398-1.412,0.983
					c-0.191,0.581,0.065,1.251,0.561,1.594c0.458,0.316,1.173,0.306,1.623-0.041c0.451-0.28,0.65-0.907,0.547-1.411
					C329.841,251.779,329.268,251.301,328.647,251.268z M369.633,253.28c0.279-0.846-0.094-1.821-0.817-2.321
					c-0.666-0.46-1.708-0.446-2.362,0.06c-0.657,0.407-0.946,1.32-0.796,2.055c0.182,0.893,1.017,1.587,1.921,1.637
					C368.479,254.759,369.352,254.13,369.633,253.28z M374.775,251.494c-0.457-0.316-1.173-0.306-1.623,0.041
					c-0.452,0.28-0.65,0.906-0.547,1.411c0.125,0.613,0.698,1.09,1.32,1.124c0.619,0.034,1.219-0.398,1.412-0.983
					C375.528,252.508,375.272,251.837,374.775,251.494z M340.662,250.535c-0.782,1.133-0.759,2.905,0.102,4.017
					c0.692,1.118,2.244,1.609,3.494,1.354c1.518-0.31,2.699-1.729,2.784-3.267c0.084-1.533-0.986-3.018-2.432-3.495
					C343.171,248.671,341.511,249.305,340.662,250.535z M350.879,259.249c0.084-1.533-0.986-3.018-2.432-3.494
					c-1.438-0.474-3.097,0.16-3.947,1.39c-0.782,1.132-0.758,2.905,0.102,4.017c0.692,1.118,2.244,1.609,3.494,1.354
					C349.613,262.206,350.794,260.786,350.879,259.249z M356.015,255.701c-1.438-0.474-3.097,0.16-3.947,1.39
					c-0.782,1.133-0.759,2.905,0.102,4.017c0.692,1.118,2.244,1.609,3.494,1.354c1.518-0.31,2.699-1.729,2.784-3.267
					C358.531,257.663,357.461,256.177,356.015,255.701z M355.905,250.535c-0.782,1.133-0.759,2.905,0.102,4.017
					c0.692,1.118,2.244,1.609,3.494,1.354c1.518-0.31,2.699-1.729,2.784-3.267c0.084-1.533-0.986-3.018-2.432-3.495
					C358.414,248.671,356.755,249.305,355.905,250.535z M352.148,243.873c-0.782,1.132-0.759,2.905,0.102,4.017
					c0.692,1.118,2.244,1.609,3.494,1.354c1.518-0.309,2.699-1.729,2.784-3.267c0.084-1.533-0.986-3.018-2.432-3.495
					C354.657,242.009,352.997,242.642,352.148,243.873z"/>
				<path style="fill:#B56B09;" d="M380.451,242.851c-1.816-6.242-6.803-11.748-12.052-15.362c-5.899-4.062-13.53-5.848-20.62-5.006
					c-4.121,0.49-8.144,1.796-11.689,3.966c-0.382,0.234-0.048,0.783,0.347,0.594c8.365-3.997,18.148-4.613,26.726-0.888
					c3.656,1.588,7.039,4.096,9.75,7.007c2.828,3.036,4.622,6.462,6.338,10.195C379.565,244.039,380.656,243.554,380.451,242.851z"
					/>
				<path style="fill:#FFE12C;" d="M376.717,218.94c-7.213-5.386-16.759-7.836-25.656-7.873c-8.675-0.036-17.296,2.909-24.497,7.656
					c-3.956,2.608-7.46,5.859-10.342,9.615c-0.498,0.649,0.618,1.518,1.141,0.88c5.246-6.392,11.987-11.37,19.812-14.12
					c8.108-2.849,16.98-3.165,25.293-0.989c4.884,1.279,9.241,3.443,13.531,6.058C376.8,220.656,377.431,219.473,376.717,218.94z"/>
				<path style="fill:#FFE12C;" d="M388.529,233.255c-0.454-1.026-1.071-1.976-1.638-2.94c-0.294-0.499-0.664-0.943-0.971-1.431
					c-0.309-0.492-0.632-0.975-0.977-1.441c-0.321-0.435-0.67-0.875-1.028-1.277c-0.376-0.422-0.798-0.824-1.146-1.273
					c-0.72-0.928-1.686-1.573-2.621-2.254c-0.552-0.401-1.082,0.434-0.688,0.892c0.716,0.833,1.344,1.723,2.137,2.493
					c0.781,0.758,1.368,1.71,2.076,2.536c1.418,1.657,2.417,3.602,3.521,5.474C387.711,234.913,388.923,234.145,388.529,233.255z"/>
			</g>
		</g>
		<g>
			<g>
				<path style="fill:#B56B09;" d="M248.419,107.015c-0.151-0.097-0.314-0.178-0.478-0.242c-1.007-0.394-2.076-0.68-3.11-0.995
					c-2.152-0.656-4.343-1.363-6.551-1.824c-0.008-0.031-0.761-0.329-0.659,0.081c0.249,1.007,0.489,2.018,0.947,2.914
					c-9.402,3.296-19.35,15.191-24.936,31.156c-6.167,17.625-5.082,34.677,1.885,42.292c-1.192-0.17-2.387-0.316-3.586-0.435
					c-0.133-0.013-0.223,0.04-0.281,0.119c-0.058-0.001-0.117,0.024-0.134,0.09c-0.154,0.587,0.328,0.957,0.813,1.186
					c0.942,0.445,1.963,0.752,2.955,1.062c1.597,0.498,5.182,1.384,5.354,1.444c11.326,3.963,26.552-10.097,34.009-31.406
					C261.927,131.65,259.102,111.634,248.419,107.015z"/>
				
					<ellipse transform="matrix(0.3303 -0.9439 0.9439 0.3303 16.1406 307.8922)" style="fill:#FFB421;" cx="225.042" cy="142.572" rx="40.876" ry="21.727"/>
				
					<ellipse transform="matrix(0.3303 -0.9439 0.9439 0.3303 15.6586 306.22)" style="fill:#FF970D;" cx="223.623" cy="142.075" rx="33.213" ry="15.971"/>
				<path style="opacity:0.75;fill:#FFB421;" d="M221.623,135.913c-0.108,1.312,0.495,2.149,1.253,2.145
					c0.921-0.005,2.133-1.238,2.822-2.825c0.687-1.582,0.753-3.356,0.198-4.156c-0.551-0.796-1.682-0.483-2.641,0.622
					C222.373,132.718,221.642,134.572,221.623,135.913z M227.899,130.778c0.542-0.003,1.254-0.728,1.66-1.661
					c0.404-0.93,0.443-1.974,0.117-2.444c-0.324-0.468-0.989-0.284-1.553,0.366c-0.519,0.598-0.95,1.689-0.96,2.478
					C227.098,130.288,227.453,130.78,227.899,130.778z M231.319,122.085c0.372-0.002,0.862-0.5,1.14-1.141
					c0.277-0.639,0.304-1.356,0.08-1.679c-0.223-0.322-0.679-0.195-1.067,0.251c-0.357,0.411-0.652,1.16-0.66,1.702
					C230.769,121.748,231.012,122.087,231.319,122.085z M224.319,126.743c0.418-0.002,0.968-0.562,1.281-1.282
					c0.312-0.718,0.341-1.523,0.09-1.886c-0.25-0.361-0.763-0.219-1.199,0.282c-0.401,0.462-0.733,1.303-0.741,1.912
					C223.701,126.364,223.975,126.744,224.319,126.743z M225.103,120.151c0.287-0.001,0.665-0.386,0.88-0.88
					c0.214-0.493,0.235-1.046,0.062-1.296c-0.172-0.248-0.524-0.151-0.823,0.194c-0.275,0.317-0.503,0.895-0.509,1.313
					C224.679,119.891,224.867,120.152,225.103,120.151z M232.7,130.114c0.247,0.24,0.708,0.155,1.085-0.309
					c0.415-0.445,0.758-1.282,0.789-1.892c0.033-0.663-0.239-1.121-0.669-1.034c-0.433,0.088-0.969,0.689-1.241,1.423
					C232.39,129.038,232.399,129.823,232.7,130.114z M236.698,124.814c0.17,0.164,0.486,0.106,0.745-0.212
					c0.285-0.306,0.521-0.881,0.542-1.3c0.023-0.456-0.164-0.77-0.46-0.71c-0.297,0.06-0.666,0.474-0.852,0.978
					C236.486,124.076,236.492,124.615,236.698,124.814z M213.287,154.17c-0.247-0.24-0.708-0.155-1.085,0.309
					c-0.415,0.445-0.758,1.282-0.789,1.893c-0.033,0.663,0.239,1.121,0.669,1.034c0.433-0.088,0.969-0.689,1.241-1.423
					C213.597,155.245,213.587,154.461,213.287,154.17z M209.288,159.469c-0.17-0.164-0.486-0.106-0.745,0.212
					c-0.285,0.306-0.521,0.88-0.542,1.3c-0.023,0.456,0.164,0.77,0.46,0.71c0.297-0.06,0.666-0.473,0.853-0.978
					C209.501,160.208,209.495,159.669,209.288,159.469z M221.668,157.54c-0.418,0.002-0.968,0.562-1.281,1.282
					c-0.312,0.718-0.341,1.523-0.09,1.886c0.25,0.361,0.763,0.219,1.199-0.282c0.401-0.462,0.733-1.303,0.741-1.912
					C222.286,157.919,222.012,157.539,221.668,157.54z M220.883,164.133c-0.287,0.001-0.665,0.386-0.88,0.88
					c-0.214,0.493-0.235,1.046-0.062,1.296c0.172,0.248,0.524,0.151,0.823-0.194c0.275-0.317,0.503-0.895,0.509-1.313
					C221.308,164.393,221.12,164.132,220.883,164.133z M219.187,135.161c0.42,0.119,1.058-0.426,1.475-1.127
					c0.506-0.852,0.722-1.989,0.521-2.649c-0.2-0.658-0.812-0.744-1.41-0.243c-0.594,0.498-1.103,1.548-1.227,2.45
					C218.432,134.422,218.707,135.124,219.187,135.161z M217.448,129.219c0.288,0.082,0.727-0.293,1.013-0.774
					c0.347-0.585,0.496-1.367,0.358-1.82c-0.137-0.452-0.558-0.511-0.969-0.167c-0.408,0.342-0.758,1.063-0.843,1.683
					C216.929,128.711,217.118,129.194,217.448,129.219z M231.825,135.578c-0.602,0.337-1.233,1.308-1.458,2.273
					c-0.185,0.794-0.102,1.629,0.283,1.834c0.372,0.306,1.057-0.011,1.55-0.689c0.535-0.737,0.895-1.847,0.811-2.617
					C232.927,135.604,232.425,135.242,231.825,135.578z M236.827,133.782c-0.413,0.232-0.847,0.899-1.002,1.561
					c-0.127,0.545-0.07,1.119,0.195,1.26c0.255,0.21,0.726-0.007,1.064-0.473c0.368-0.506,0.615-1.269,0.557-1.798
					C237.583,133.799,237.239,133.551,236.827,133.782z M215.708,146.348c0.185-0.794,0.102-1.629-0.283-1.834
					c-0.372-0.306-1.057,0.01-1.55,0.689c-0.535,0.737-0.895,1.847-0.811,2.617c0.085,0.775,0.586,1.137,1.186,0.801
					C214.852,148.284,215.484,147.313,215.708,146.348z M210.056,147.596c-0.255-0.21-0.726,0.007-1.065,0.473
					c-0.368,0.506-0.615,1.268-0.557,1.798c0.058,0.533,0.403,0.781,0.815,0.55c0.413-0.232,0.847-0.899,1.002-1.561
					C210.377,148.311,210.321,147.737,210.056,147.596z M226.828,149.187c-0.42-0.119-1.058,0.426-1.475,1.127
					c-0.506,0.852-0.722,1.99-0.521,2.649c0.2,0.658,0.812,0.744,1.41,0.244c0.594-0.498,1.103-1.548,1.227-2.45
					C227.584,149.926,227.309,149.223,226.828,149.187z M228.568,155.128c-0.288-0.082-0.727,0.293-1.013,0.775
					c-0.347,0.585-0.496,1.367-0.358,1.82c0.137,0.452,0.558,0.511,0.969,0.167c0.408-0.342,0.757-1.063,0.843-1.683
					C229.087,155.636,228.898,155.154,228.568,155.128z M218.162,153.768c-0.542,0.003-1.254,0.728-1.66,1.661
					c-0.404,0.93-0.443,1.974-0.117,2.444c0.324,0.468,0.989,0.284,1.553-0.366c0.519-0.598,0.949-1.689,0.96-2.478
					C218.963,154.259,218.608,153.766,218.162,153.768z M214.742,162.461c-0.372,0.002-0.862,0.5-1.14,1.141
					c-0.278,0.639-0.304,1.356-0.08,1.679c0.223,0.321,0.68,0.195,1.067-0.251c0.357-0.411,0.652-1.16,0.66-1.702
					C215.292,162.798,215.049,162.46,214.742,162.461z M215.283,136.683c-0.449-0.24-1.169,0.233-1.672,1.061
					c-0.5,0.824-0.715,1.92-0.548,2.593c0.154,0.619,0.703,0.824,1.257,0.433c0.514-0.287,1.047-1.179,1.277-1.977
					C215.877,137.824,215.734,136.924,215.283,136.683z M211.887,136.092c-0.309-0.165-0.803,0.16-1.148,0.729
					c-0.344,0.566-0.492,1.319-0.376,1.781c0.106,0.425,0.483,0.566,0.863,0.297c0.353-0.197,0.719-0.81,0.878-1.358
					C212.295,136.876,212.197,136.257,211.887,136.092z M232.413,146.787c0.5-0.824,0.715-1.92,0.548-2.593
					c-0.154-0.619-0.703-0.824-1.257-0.433c-0.514,0.287-1.047,1.179-1.277,1.977c-0.28,0.969-0.136,1.87,0.315,2.111
					C231.19,148.089,231.91,147.615,232.413,146.787z M235.844,146.002c-0.106-0.425-0.483-0.566-0.863-0.297
					c-0.353,0.197-0.719,0.81-0.878,1.358c-0.192,0.666-0.093,1.284,0.216,1.45c0.309,0.165,0.803-0.16,1.148-0.729
					C235.811,147.217,235.959,146.464,235.844,146.002z M218.459,137.847c-0.883,1.018-1.615,2.872-1.633,4.213
					c-0.108,1.312,0.495,2.149,1.254,2.145c0.921-0.005,2.133-1.238,2.822-2.825c0.687-1.582,0.753-3.356,0.198-4.156
					C220.549,136.429,219.419,136.742,218.459,137.847z M220.13,149.082c0.687-1.582,0.753-3.356,0.198-4.156
					c-0.551-0.796-1.682-0.483-2.641,0.622c-0.883,1.018-1.615,2.872-1.633,4.213c-0.108,1.312,0.495,2.149,1.253,2.145
					C218.229,151.902,219.44,150.668,220.13,149.082z M224.296,146.457c-0.551-0.796-1.682-0.483-2.641,0.622
					c-0.883,1.018-1.615,2.872-1.633,4.213c-0.108,1.312,0.495,2.149,1.253,2.145c0.921-0.005,2.133-1.238,2.822-2.825
					C224.785,149.032,224.851,147.257,224.296,146.457z M226.408,141.044c-0.883,1.018-1.615,2.872-1.633,4.213
					c-0.108,1.312,0.495,2.149,1.253,2.145c0.921-0.005,2.133-1.238,2.822-2.825c0.687-1.582,0.753-3.356,0.198-4.156
					C228.498,139.626,227.367,139.939,226.408,141.044z M227.244,133.304c-0.883,1.018-1.615,2.872-1.633,4.213
					c-0.108,1.312,0.495,2.149,1.254,2.145c0.921-0.005,2.133-1.238,2.822-2.825c0.687-1.582,0.753-3.356,0.198-4.156
					C229.334,131.886,228.204,132.199,227.244,133.304z"/>
				<path style="fill:#B56B09;" d="M225.857,111.409c-3.752,2.571-7.058,5.705-9.809,9.327c-1.383,1.82-2.637,3.738-3.709,5.758
					c-1.049,1.978-2.199,4.207-2.61,6.428c-0.051,0.277,0.338,0.49,0.486,0.205c1.017-1.97,1.732-4.091,2.78-6.056
					c1.023-1.916,2.178-3.77,3.482-5.507c2.732-3.642,6.064-6.837,9.807-9.426C226.726,111.831,226.307,111.101,225.857,111.409z"/>
				<path style="fill:#B56B09;" d="M239.501,114c-2.595-3.495-7.664-5.362-11.739-3.31c-0.258,0.13-0.076,0.525,0.193,0.457
					c2.078-0.529,4.192-0.715,6.264-0.028c1.808,0.6,3.427,1.776,4.567,3.299C239.101,114.839,239.819,114.43,239.501,114z"/>
				<path style="fill:#FFE12C;" d="M233.424,158.193c-2.578,4.259-5.248,8.639-9.22,11.754c-3.545,2.78-8.913,5.02-13.052,2.214
					c-0.344-0.233-0.754,0.297-0.445,0.577c3.643,3.294,9.632,0.98,13.073-1.428c4.566-3.196,7.521-8.02,10.373-12.691
					C234.436,158.154,233.705,157.729,233.424,158.193z"/>
				<path style="fill:#FFE12C;" d="M231.592,103.217c-8.304,1.25-14.292,7.909-18.611,14.609c-2.782,4.314-5.342,8.858-7.336,13.593
					c-0.144,0.342,0.433,0.583,0.6,0.253c3.562-7.062,7.172-14.458,12.643-20.277c5.152-5.479,13.014-9.504,20.552-6.595
					c3.908,1.508,6.951,5.061,7.472,9.262c0.056,0.45,0.767,0.464,0.719,0C246.82,106.222,238.838,102.126,231.592,103.217z"/>
			</g>
		</g>
		<g>
			<g>
				<path style="fill:#B56B09;" d="M380.655,154.452c7.293-10.815,6.015-29.325-4.21-45.835
					c-10.134-16.363-25.944-25.736-38.814-24.236c0.517-0.438,1.247-1.073,0.943-1.67c-0.361-0.71-1.35-0.156-1.829,0.069
					c-1.076,0.506-2.122,1.071-3.151,1.665c-1.145,0.662-2.268,1.36-3.389,2.06c-0.522,0.326-1.024,0.677-1.484,1.075
					c-13.167,8.653-13.898,31.558-1.524,51.538c11.962,19.314,31.827,28.881,45.434,22.333c0.106-0.041,0.215-0.077,0.32-0.122
					c2.411-1.014,4.644-2.54,6.828-3.965c0.641-0.418,1.922-0.973,2.014-1.864C381.863,154.827,381.236,154.493,380.655,154.452z"/>
				
					<ellipse transform="matrix(0.8502 -0.5265 0.5265 0.8502 -9.5066 206.5866)" style="fill:#FFB421;" cx="358.208" cy="119.996" rx="28.964" ry="43.033"/>
				
					<ellipse transform="matrix(0.8502 -0.5265 0.5265 0.8502 -8.9391 207.102)" style="fill:#FF970D;" cx="359.402" cy="119.257" rx="20.959" ry="33.786"/>
				<path style="opacity:0.75;fill:#FFB421;" d="M352.483,117.01c1.153,0.697,2.465,0.439,3.112-0.355
					c0.785-0.965,0.652-2.781-0.265-4.207c-0.914-1.422-2.543-2.281-3.778-2.058c-1.228,0.222-1.9,1.543-1.672,3.038
					C350.09,114.804,351.225,116.394,352.483,117.01z M352.982,108.164c0.462-0.567,0.383-1.635-0.156-2.474
					c-0.537-0.836-1.495-1.341-2.222-1.21c-0.722,0.13-1.117,0.907-0.983,1.786c0.124,0.809,0.791,1.744,1.531,2.107
					C351.83,108.783,352.602,108.632,352.982,108.164z M347.655,100.72c0.317-0.39,0.263-1.123-0.107-1.7
					c-0.369-0.575-1.027-0.921-1.526-0.831c-0.496,0.09-0.767,0.623-0.675,1.227c0.085,0.556,0.543,1.198,1.051,1.447
					C346.864,101.145,347.394,101.04,347.655,100.72z M346.082,110.11c0.356-0.438,0.296-1.262-0.12-1.909
					c-0.415-0.645-1.154-1.035-1.714-0.934c-0.557,0.101-0.862,0.7-0.759,1.378c0.095,0.624,0.61,1.346,1.181,1.626
					C345.193,110.587,345.789,110.47,346.082,110.11z M340.493,106.354c0.245-0.301,0.203-0.867-0.083-1.312
					c-0.285-0.443-0.793-0.711-1.178-0.642c-0.383,0.069-0.592,0.481-0.521,0.947c0.065,0.429,0.419,0.925,0.811,1.117
					C339.882,106.682,340.291,106.602,340.493,106.354z M356.464,102.851c0.439-0.152,0.753-0.671,0.636-1.271
					c-0.067-0.632-0.568-1.364-1.121-1.667c-0.602-0.33-1.269-0.25-1.555,0.239c-0.288,0.492-0.175,1.32,0.288,1.931
					C355.177,102.696,355.93,103.035,356.464,102.851z M354.856,96.312c0.302-0.104,0.518-0.461,0.437-0.873
					c-0.046-0.434-0.39-0.937-0.77-1.145c-0.413-0.227-0.872-0.172-1.068,0.164c-0.198,0.338-0.121,0.907,0.198,1.326
					C353.973,96.206,354.49,96.439,354.856,96.312z M362.681,133.852c-0.439,0.152-0.753,0.671-0.636,1.271
					c0.067,0.632,0.568,1.364,1.121,1.667c0.602,0.33,1.269,0.25,1.555-0.239c0.288-0.492,0.175-1.32-0.289-1.931
					C363.967,134.007,363.214,133.668,362.681,133.852z M364.288,140.391c-0.302,0.104-0.518,0.461-0.437,0.873
					c0.046,0.434,0.39,0.937,0.77,1.145c0.413,0.227,0.872,0.172,1.068-0.164c0.197-0.338,0.121-0.907-0.198-1.326
					C365.172,140.497,364.655,140.264,364.288,140.391z M373.063,126.593c-0.356,0.438-0.296,1.262,0.12,1.909
					c0.415,0.645,1.154,1.035,1.714,0.934c0.557-0.101,0.862-0.7,0.759-1.378c-0.095-0.624-0.61-1.346-1.181-1.626
					C373.952,126.116,373.356,126.233,373.063,126.593z M378.652,130.348c-0.245,0.301-0.203,0.867,0.082,1.312
					c0.285,0.443,0.793,0.711,1.178,0.641c0.383-0.069,0.592-0.481,0.521-0.947c-0.065-0.429-0.419-0.925-0.811-1.117
					C379.263,130.021,378.853,130.101,378.652,130.348z M349.681,119.221c0.473-0.386,0.502-1.296,0.192-2.043
					c-0.376-0.908-1.271-1.641-2.07-1.725c-0.796-0.084-1.403,0.518-1.439,1.365c-0.036,0.843,0.525,1.842,1.276,2.373
					C348.332,119.681,349.235,119.707,349.681,119.221z M342.547,118.394c0.325-0.265,0.345-0.89,0.132-1.403
					c-0.258-0.624-0.873-1.127-1.422-1.185c-0.547-0.058-0.964,0.356-0.989,0.938c-0.025,0.579,0.361,1.265,0.877,1.63
					C341.62,118.71,342.241,118.728,342.547,118.394z M360.905,106.199c-0.195,0.779,0.186,1.871,0.909,2.536
					c0.596,0.547,1.46,0.832,1.985,0.521c0.609-0.252,0.895-1.109,0.673-1.927c-0.241-0.888-0.987-1.758-1.791-2.013
					C361.873,105.059,361.1,105.422,360.905,106.199z M363.484,100.171c-0.134,0.535,0.128,1.286,0.625,1.742
					c0.409,0.376,1.003,0.572,1.363,0.358c0.419-0.173,0.615-0.762,0.462-1.323c-0.166-0.61-0.678-1.208-1.23-1.383
					C364.149,99.388,363.617,99.638,363.484,100.171z M357.327,127.839c-0.596-0.547-1.46-0.832-1.985-0.521
					c-0.609,0.252-0.895,1.109-0.673,1.926c0.241,0.888,0.987,1.758,1.791,2.013c0.809,0.257,1.582-0.107,1.777-0.883
					C358.431,129.596,358.05,128.503,357.327,127.839z M353.669,134.302c-0.419,0.173-0.615,0.762-0.462,1.323
					c0.166,0.61,0.678,1.208,1.23,1.383c0.556,0.176,1.087-0.073,1.22-0.607c0.134-0.535-0.128-1.286-0.625-1.742
					C354.623,134.284,354.029,134.088,353.669,134.302z M369.55,117.48c-0.473,0.386-0.502,1.296-0.192,2.043
					c0.376,0.908,1.271,1.641,2.07,1.725c0.796,0.084,1.403-0.518,1.439-1.365c0.036-0.843-0.525-1.842-1.276-2.373
					C370.899,117.02,369.995,116.994,369.55,117.48z M376.684,118.308c-0.325,0.265-0.345,0.89-0.132,1.403
					c0.258,0.624,0.873,1.127,1.422,1.185c0.547,0.058,0.964-0.356,0.989-0.938c0.025-0.579-0.361-1.265-0.876-1.63
					C377.611,117.992,376.99,117.974,376.684,118.308z M366.477,128.578c-0.462,0.567-0.383,1.635,0.156,2.474
					c0.537,0.837,1.495,1.342,2.222,1.21c0.722-0.13,1.117-0.907,0.983-1.786c-0.124-0.809-0.791-1.744-1.531-2.107
					C367.628,127.959,366.856,128.111,366.477,128.578z M371.803,136.023c-0.317,0.39-0.263,1.123,0.107,1.7
					c0.369,0.575,1.027,0.922,1.526,0.831c0.496-0.09,0.767-0.623,0.675-1.227c-0.085-0.556-0.543-1.198-1.051-1.447
					C372.594,135.598,372.064,135.702,371.803,136.023z M347.782,123.979c-0.613,0.363-0.78,1.325-0.424,2.22
					c0.354,0.89,1.211,1.603,1.994,1.727c0.721,0.115,1.385-0.369,1.488-1.121c0.167-0.665-0.222-1.619-0.783-2.215
					C349.375,123.867,348.397,123.616,347.782,123.979z M344.311,127.266c-0.421,0.249-0.536,0.91-0.291,1.525
					c0.243,0.611,0.832,1.101,1.369,1.187c0.495,0.079,0.951-0.253,1.022-0.77c0.115-0.457-0.153-1.112-0.538-1.522
					C345.405,127.188,344.733,127.016,344.311,127.266z M372.055,110.575c-0.354-0.89-1.211-1.603-1.994-1.727
					c-0.721-0.115-1.385,0.368-1.488,1.121c-0.167,0.665,0.222,1.619,0.783,2.215c0.681,0.724,1.659,0.975,2.275,0.611
					C372.244,112.432,372.411,111.469,372.055,110.575z M374.249,106.64c-0.495-0.079-0.951,0.253-1.022,0.77
					c-0.115,0.457,0.153,1.112,0.538,1.522c0.468,0.497,1.14,0.67,1.562,0.42c0.421-0.249,0.536-0.91,0.291-1.525
					C375.375,107.215,374.786,106.725,374.249,106.64z M351.609,121.178c0.21,1.376,1.344,2.966,2.603,3.583
					c1.153,0.697,2.465,0.44,3.112-0.355c0.785-0.965,0.652-2.781-0.265-4.207c-0.914-1.422-2.543-2.281-3.778-2.058
					C352.053,118.362,351.381,119.683,351.609,121.178z M363.71,124.435c-0.914-1.422-2.543-2.281-3.778-2.058
					c-1.228,0.222-1.9,1.543-1.672,3.038c0.21,1.376,1.344,2.966,2.603,3.583c1.153,0.697,2.465,0.44,3.112-0.355
					C364.76,127.677,364.627,125.862,363.71,124.435z M364.788,118.911c-1.228,0.222-1.9,1.543-1.672,3.038
					c0.21,1.376,1.344,2.966,2.603,3.583c1.153,0.697,2.465,0.44,3.112-0.355c0.785-0.965,0.652-2.781-0.265-4.207
					C367.652,119.547,366.022,118.688,364.788,118.911z M361.455,114.295c0.21,1.376,1.344,2.966,2.603,3.583
					c1.153,0.697,2.465,0.439,3.112-0.355c0.785-0.965,0.652-2.781-0.265-4.208c-0.914-1.422-2.543-2.281-3.778-2.058
					C361.899,111.479,361.227,112.8,361.455,114.295z M354.821,109.974c0.21,1.376,1.344,2.966,2.603,3.583
					c1.153,0.697,2.465,0.44,3.112-0.355c0.785-0.965,0.652-2.781-0.265-4.207c-0.914-1.422-2.543-2.281-3.778-2.058
					C355.264,107.158,354.592,108.479,354.821,109.974z"/>
				<path style="fill:#B56B09;" d="M357.838,89.899c-0.303-0.388-0.885-0.538-1.335-0.715c-0.557-0.219-1.127-0.406-1.704-0.566
					c-1.152-0.319-2.337-0.523-3.529-0.619c-1.194-0.096-2.397-0.076-3.587,0.061c-1.112,0.129-2.324,0.285-3.305,0.855
					c-0.2,0.116-0.123,0.466,0.122,0.451c1.106-0.065,2.19-0.401,3.294-0.522c1.116-0.123,2.244-0.141,3.364-0.057
					c1.159,0.086,2.308,0.289,3.429,0.6c0.505,0.14,1.003,0.303,1.494,0.485c0.5,0.186,1.012,0.537,1.552,0.521
					C357.905,90.384,357.988,90.091,357.838,89.899z"/>
				<path style="fill:#B56B09;" d="M374.221,103.02c-1.66-2.57-3.865-4.847-6.172-6.843c-1.139-0.986-2.331-1.913-3.566-2.775
					c-1.198-0.836-2.583-1.822-3.997-2.238c-0.246-0.072-0.461,0.266-0.258,0.444c0.526,0.463,1.157,0.798,1.738,1.187
					c0.626,0.419,1.247,0.846,1.867,1.274c1.269,0.875,2.487,1.822,3.65,2.833c2.284,1.987,4.251,4.228,6.223,6.515
					C373.948,103.7,374.422,103.332,374.221,103.02z"/>
				<path style="fill:#FFE12C;" d="M382.055,102.742c-3.731-6.804-9.333-12.509-15.958-16.538
					c-7.013-4.265-15.995-6.955-24.212-5.546c-4.494,0.771-8.655,2.964-11.452,6.612c-0.219,0.286,0.272,0.668,0.503,0.388
					c5.772-6.998,15.533-7.351,23.687-5.191c7.098,1.879,13.839,5.687,19.078,10.83c2.979,2.924,5.52,6.269,7.543,9.919
					C381.538,103.744,382.345,103.272,382.055,102.742z"/>
				<path style="fill:#FFE12C;" d="M376.987,148.283c-4.83,1.817-10.076,1.245-14.811-0.597c-2.348-0.913-4.588-2.12-6.731-3.438
					c-2.185-1.344-4.218-2.984-6.454-4.232c-0.294-0.164-0.633,0.239-0.369,0.479c1.907,1.733,4.179,3.185,6.347,4.569
					c2.262,1.444,4.622,2.73,7.138,3.677c4.802,1.807,10.27,2.297,15.087,0.297C377.648,148.848,377.465,148.103,376.987,148.283z"
					/>
			</g>
		</g>
	</g>
	<g>
		<path style="fill:#BD8F53;" d="M220.447,439.965c1.935,1.355,80.516-13.935,81.097-13.935c0.581,0,79.935-14.323,81.677-14.903
			c1.742-0.581,70.065-12.194,70.065-12.194s2.129-1.161,2.71-1.548c0.581-0.387,1.355-1.548,1.548-2.323
			c0.194-0.774,0.774-3.871,0.581-4.452c-0.194-0.581-13.161-72.774-13.742-74.129c-0.581-1.355-14.516-80.323-14.516-80.323
			s-0.387-1.742-0.774-2.323c-0.387-0.581-0.968-0.968-1.548-1.355c-0.581-0.387-2.323-0.581-2.903-0.387
			c-0.581,0.194-16.839,2.903-17.807,2.903c-0.968,0-26.516,4.839-28.258,5.419c-1.742,0.581-97.935,18-100.452,18.774
			c-2.516,0.774-84,14.129-84,14.129s-1.742,0.581-2.516,1.161c-0.774,0.581-1.548,1.935-1.742,2.71
			c-0.193,0.774-0.193,2.323-0.193,2.323l0.193,0.774c0.387,2.323,10.064,60,10.452,63.097c0.387,3.097,16.645,91.742,16.645,91.742
			S218.598,438.671,220.447,439.965z"/>
		<path style="fill:#7D5A2D;" d="M235.666,369.263c-3.845-20.126-7.707-40.249-11.511-60.383
			c-2.165-11.458-4.248-22.932-6.549-34.365c-0.161-0.802-1.364-0.458-1.22,0.336c1.838,10.163,3.823,20.3,5.81,30.434
			c1.988,10.135,3.826,20.298,5.826,30.43c3.968,20.1,7.716,40.245,11.569,60.366c2.193,11.451,4.399,22.9,6.61,34.348
			c0.132,0.681,1.168,0.392,1.04-0.287C243.407,409.846,239.543,389.553,235.666,369.263z"/>
		<path style="fill:#BD8F53;" d="M445.521,293.417c-0.018-0.075-0.055-0.128-0.086-0.187c-0.081-0.37-0.418-0.707-0.904-0.638
			c-8.787,1.245-17.449,3.343-26.197,4.813c-4.337,0.729-8.646,1.613-12.974,2.395c-2.123,0.383-4.233,0.827-6.357,1.203
			c-1.461,0.259-3.008,0.578-4.457,1.07c-0.597,0.088-1.152,0.321-1.65,0.67c-0.051,0.025-0.107,0.042-0.157,0.067
			c-0.068,0.035-0.098,0.087-0.111,0.143c-1.232,1.004-2.071,2.675-2.265,4.26c-0.273,2.224,0.002,4.522,0.238,6.737
			c0.245,2.298,0.543,4.584,0.966,6.856c0.845,4.537,2.031,9.071,3.683,13.386c0.575,1.503,3.136,4.012,3.27,4.061
			c-0.039,0.137,4.703,0.132,6.806-0.283c2.117-0.418,4.246-0.766,6.364-1.177c4.316-0.838,8.652-1.568,12.957-2.457
			c8.684-1.792,17.516-2.964,26.154-4.981c0.353-0.082,0.518-0.318,0.544-0.577C451.662,328.732,446.245,296.375,445.521,293.417z"
			/>
		<path style="fill:#7D5A2D;" d="M445.311,329.822c-8.494,1.601-16.981,3.26-25.459,4.937c-4.2,0.831-8.423,1.553-12.614,2.425
			c-3.468,0.722-9.29,2.084-11.012-2.3c-0.173-0.441-0.888-0.261-0.723,0.199c1.182,3.297,4.799,4.2,7.978,3.883
			c4.614-0.461,9.198-1.74,13.753-2.585c9.468-1.756,18.927-3.611,28.372-5.49C446.307,330.752,446.008,329.69,445.311,329.822z"/>
		<path style="fill:#7D5A2D;" d="M394.491,330.302c-0.173-0.808-0.355-1.614-0.54-2.42c-0.364-1.58-0.727-3.161-1.091-4.741
			c-0.128-0.558-0.99-0.322-0.859,0.237c0.371,1.578,0.743,3.157,1.114,4.735c0.353,1.501,0.586,3.17,1.317,4.539
			c0.091,0.17,0.343,0.084,0.349-0.095C394.807,331.786,394.651,331.055,394.491,330.302z"/>
		<path style="fill:#FEC06F;" d="M436.309,293.444c-10.142,1.858-20.295,3.657-30.442,5.485c-2.451,0.442-4.908,0.857-7.354,1.32
			c-1.896,0.359-3.834,0.82-5.473,1.885c-2.727,1.771-4.294,5.476-2.879,8.561c0.131,0.285,0.516,0.067,0.471-0.199
			c-0.327-1.942-0.229-3.819,0.827-5.537c1.103-1.796,3.015-2.716,4.979-3.265c4.167-1.164,8.59-1.664,12.844-2.431
			c9.092-1.638,18.179-3.303,27.276-4.915C437.15,294.243,436.901,293.335,436.309,293.444z"/>
		<path style="fill:#FEC06F;" d="M419.138,311.495c-1.658-1.253-3.745-1.789-5.789-1.359c-1.524,0.32-3.004,0.85-4.093,1.857
			c0,0-0.001,0.001-0.001,0.001c-1.514,1.138-2.362,2.957-2.45,4.829c-0.053,1.123,0.192,2.264,0.66,3.32
			c0.314,1.266,1.014,2.354,2.14,3.249c3.367,2.676,8.268,2.322,10.956-1.126C423.212,318.864,422.574,314.09,419.138,311.495z"/>
		<path style="fill:#FEDBAD;" d="M422.269,314.968c-1.009-2.574-3.276-4.57-6.012-5.083c-1.563-0.293-3.2-0.186-4.683,0.398
			c-1.3,0.512-3.114,1.313-3.805,2.614c-0.101,0.19,0.1,0.386,0.289,0.289c0.638-0.33,1.183-0.872,1.81-1.24
			c0.671-0.394,1.381-0.707,2.137-0.897c1.476-0.372,3.017-0.5,4.503-0.108c2.802,0.738,5.04,3.341,5.246,6.254
			c0.031,0.438-0.17,1.431,0.122,1.795c0.25,0.312,0.581,0.093,0.721-0.201C423.113,317.702,422.681,316.018,422.269,314.968z"/>
	</g>
	<g>
		<path style="fill:#419C02;" d="M123.26,270.976c-1.891-2.62-4.513-4.679-7.476-5.895c-1.017-0.65-2.262-1.036-3.378-1.34
			c-1.6-0.434-3.28-0.63-4.936-0.607c-3.371,0.048-6.797,1.023-9.65,2.829c-5.698,3.606-8.906,10.534-8.637,17.189
			c0.136,3.371,1.138,7.929,4.275,9.816c0.007,0.004,0.014,0.001,0.021,0.003c1.534,3.39,5.356,5.869,8.647,7.085
			c5.114,1.889,10.83,1.21,15.485-1.589C126.879,292.895,129.589,279.746,123.26,270.976z M119.238,295.825
			c-3.85,3.33-9.085,4.728-14.09,3.874c-4.949-0.844-11.409-4.321-11.943-9.917c-0.025-0.266-0.418-0.277-0.422,0
			c-0.01,0.797,0.123,1.555,0.35,2.28c-1.096-1.513-1.975-2.996-2.461-4.895c-0.491-1.916-0.647-3.909-0.507-5.881
			c0.284-4.007,1.818-7.963,4.417-11.039c2.547-3.014,6.154-5.119,10.064-5.738c1.372-0.217,2.774-0.272,4.162-0.165
			c-0.05,0.311,0.122,0.66,0.534,0.666c1.664,0.022,3.29,0.302,4.837,0.807c0.567,0.242,1.14,0.477,1.733,0.679
			c1.955,0.892,3.742,2.158,5.255,3.748c3.303,3.472,4.665,8.224,4.292,12.948C125.078,288.009,122.916,292.644,119.238,295.825z"/>
		<g>
			<g>
				<path style="fill:#FFFFFF;" d="M182.689,236.663c0.042-1.646,0.08-3.291,0.015-4.936c-0.068-1.723,0.09-3.422-0.079-5.146
					c-0.059-0.598-0.643-0.69-1.066-0.459c-0.008-0.001-0.014-0.005-0.022-0.006c-19.09-1.141-146.971-0.126-147.05,0.616
					c-0.167,1.568-0.139,24.505-0.189,27.536c-0.05,3.024-0.078,21.396-0.074,27.54c0.004,6.06-0.301,32.084,0.171,38.982
					c0.015,0.225,0.138,0.374,0.291,0.451c0.086,0.144,0.233,0.251,0.46,0.248c18.988-0.326,140.748,0.464,146.09,0.309
					c0.411-0.012,0.609-0.296,0.614-0.593c0.102-0.078,0.177-0.201,0.19-0.378c0.468-6.133,0.344-12.289,0.423-18.433
					c0.079-6.145,0.042-12.301,0.041-18.447c-0.002-12.292-0.044-24.601,0.195-36.89C182.767,243.597,182.6,240.12,182.689,236.663z
					"/>
				<path style="fill:#75859C;" d="M66.428,321.261c-10.205-0.219-20.783-0.996-30.969-0.148c0.13-16.877,0.598-34.05-0.588-50.877
					c-0.037-0.52-0.782-0.525-0.813,0c-0.988,17.176-0.246,34.692,0.094,51.889c0.015,0.776,1.108,0.823,1.266,0.152
					c10.183,1.028,20.787,0.434,31.009,0.391C67.333,322.664,67.333,321.28,66.428,321.261z"/>
				<path style="fill:#75859C;" d="M182.626,226.581c-0.059-0.598-0.643-0.69-1.066-0.459c-0.008-0.001-0.014-0.005-0.022-0.006
					c-19.09-1.141-146.971-0.126-147.05,0.616c-0.077,0.727-0.113,6.053-0.134,11.857c3.159,0.099,6.323,0.098,9.488,0.145
					c5.457,0.082,10.913,0.12,16.37,0.156c10.828,0.072,21.658,0.041,32.485,0.119c21.742,0.157,43.483,0.24,65.225,0.365
					c8.244,0.048,16.494,0.148,24.742,0.17c-0.004-0.961-0.001-1.922,0.024-2.881c0.042-1.646,0.08-3.291,0.015-4.936
					C182.636,230.004,182.795,228.305,182.626,226.581z"/>
				<path style="fill:#E1EEF7;" d="M177.273,235.3c-0.862-0.882-1.719-1.768-2.59-2.641c0.829-0.876,1.629-1.781,2.388-2.713
					c0.178-0.219,0.214-0.526,0-0.74c-0.184-0.184-0.561-0.22-0.74,0c-0.762,0.936-1.546,1.851-2.34,2.758
					c-0.351-0.349-0.702-0.698-1.053-1.047c-0.466-0.463-0.939-1.054-1.525-1.367c-0.241-0.129-0.482,0.126-0.363,0.363
					c0.288,0.578,0.851,1.056,1.289,1.521c0.365,0.388,0.73,0.775,1.095,1.163c-0.773,0.871-1.553,1.735-2.348,2.588
					c-0.298,0.32,0.15,0.756,0.475,0.475c0.874-0.755,1.711-1.556,2.523-2.382c0.846,0.891,1.706,1.769,2.561,2.651
					C177.042,236.342,177.674,235.71,177.273,235.3z"/>
				<path style="fill:#B4BFD1;" d="M167.221,235.152c-1.081-0.035-2.16-0.071-3.242-0.083c-0.53-0.006-1.059-0.012-1.589-0.019
					c-0.55-0.006-1.106-0.043-1.653,0.024c-0.266,0.033-0.395,0.467-0.071,0.522c1.057,0.177,2.178,0.12,3.249,0.153
					c1.102,0.035,2.203,0.047,3.305,0.059C167.645,235.813,167.643,235.165,167.221,235.152z"/>
			</g>
			<g>
				
					<ellipse transform="matrix(0.1646 -0.9864 0.9864 0.1646 -187.9764 342.3142)" style="fill:#419C02;" cx="108.092" cy="282.126" rx="18.871" ry="18.871"/>
				<path style="fill:#E1EEF7;" d="M153.77,274.481c-4.179,0-7.569,3.354-7.639,7.517c-2.469,0.02-4.938,0.04-7.407,0.062
					c-1.513,0.013-3.026,0.027-4.538,0.041c-1.312,0.012-2.696-0.096-3.996,0.159c-0.001-0.008-0.08-0.406-0.082-0.574
					c0.167-9.669-7.039-18.534-16.396-20.98c-9.785-2.557-20.469,1.899-25.155,10.919c-1.653,3.182-2.663,6.95-2.624,10.641
					c-2.369,0.047-4.733,0.124-7.104,0.092c-2.128-0.028-4.312-0.246-6.45-0.16c0-0.024,0.004-0.047,0.004-0.072
					c0-4.222-3.423-7.645-7.645-7.645c-4.222,0-7.645,3.423-7.645,7.645c0,4.222,3.423,7.645,7.645,7.645
					c3.91,0,7.129-2.937,7.584-6.725c2.083,0.32,4.279,0.249,6.359,0.262c2.422,0.015,4.863-0.003,7.282-0.168
					c0.067,1.176,0.242,2.339,0.544,3.467c0,0.002-0.002,0.002-0.001,0.004c0.459,3.852,2.821,7.631,5.425,10.412
					c2.83,3.022,6.487,5.261,10.508,6.282c8.445,2.145,17.645-0.871,23.005-7.766c2.641-3.397,4.986-8.18,4.737-12.642
					c1.295,0.225,2.702,0.013,4.005,0.004c1.513-0.011,3.026-0.022,4.538-0.033c2.478-0.018,4.957-0.038,7.435-0.058
					c0.346,3.902,3.619,6.962,7.611,6.962c4.222,0,7.645-3.423,7.645-7.645C161.415,277.904,157.992,274.481,153.77,274.481z
					 M126.105,293.27c-2.162,3.52-5.392,6.38-9.165,8.066c-7.749,3.462-17.043,2.107-23.313-3.654
					c-1.569-1.441-2.928-3.104-4.024-4.93c-0.971-1.617-2.171-5.17-2.184-5.244c-0.841-4.7-0.693-9.355,1.174-13.807
					c1.832-4.367,5.066-8.062,9.255-10.299c8.583-4.582,19.533-2.745,25.915,4.632c3.497,4.043,5.633,8.807,5.668,14.139
					c0.001,0.203-0.015,0.604-0.048,0.968c-0.237,1.639-0.319,3.034-0.8,4.644C128.007,289.713,127.157,291.558,126.105,293.27z"/>
				<path style="fill:#88E843;" d="M118.923,277.374c-0.673-0.697-1.358-1.382-2.032-2.077c-0.432-0.446-0.912-1.204-1.606-1.228
					c-0.584-0.02-0.979,0.452-1.32,0.867c-0.651,0.79-1.292,1.59-1.93,2.39c-1.216,1.524-2.424,3.057-3.651,4.572
					c-0.77,0.95-1.629,1.901-2.376,2.911c-0.274-0.234-0.549-0.467-0.819-0.705c-1.119-0.982-2.26-1.942-3.418-2.878
					c-0.474-0.383-1.313-1.003-1.938-1.079c-0.281-0.034-2.567,2.514-3.011,2.979c-0.016,0.017-0.015,0.038-0.021,0.057
					c-0.088,0.023-0.144,0.13-0.109,0.216c0.174,0.419,0.58,0.71,0.918,0.998c0.442,0.377,0.87,0.771,1.313,1.147
					c0.861,0.73,1.713,1.472,2.588,2.186c0.849,0.694,1.685,1.406,2.516,2.12c0.874,0.751,1.736,1.564,2.683,2.221
					c0.14,0.097,0.318,0.046,0.422-0.061c0.059,0.001,0.121-0.02,0.174-0.074c2.116-2.17,3.932-4.654,5.859-6.99
					c1.93-2.34,3.927-4.649,5.771-7.057c0.073-0.096,0.084-0.193,0.06-0.279C119.012,277.535,118.998,277.452,118.923,277.374z"/>
				<path style="fill:#55CA02;" d="M122.83,269.779c-2.865-3.311-6.735-5.634-11.034-6.521c-4.67-0.964-9.254-0.086-13.515,1.922
					c-0.467,0.22-0.049,0.968,0.41,0.702c7.777-4.506,17.859-2.188,23.675,4.362C122.647,270.56,123.104,270.096,122.83,269.779z"/>
				<path style="fill:#55CA02;" d="M126.981,278.528c-0.243-1.243-0.606-2.463-1.093-3.632c-0.425-1.022-0.938-2.467-1.868-3.132
					c-0.145-0.104-0.304,0.067-0.275,0.212c0.107,0.548,0.451,1.052,0.708,1.543c0.276,0.526,0.527,1.065,0.75,1.615
					c0.454,1.124,0.807,2.287,1.047,3.475c0.241,1.195,0.363,2.41,0.368,3.629c0.002,0.586-0.022,1.172-0.074,1.756
					c-0.055,0.615-0.22,1.239-0.184,1.857c0.015,0.259,0.411,0.427,0.539,0.146c0.48-1.055,0.452-2.5,0.455-3.641
					C127.356,281.072,127.227,279.787,126.981,278.528z"/>
			</g>
		</g>
	</g>
	<g>
		<g>
			<path style="fill:#FFFFFF;" d="M191.112,351.997c0.038-1.53,0.071-3.058,0.014-4.587c-0.06-1.601,0.08-3.18-0.07-4.781
				c-0.052-0.556-0.569-0.641-0.945-0.427c-0.007-0.001-0.012-0.005-0.02-0.005c-16.907-1.06-130.162-0.117-130.232,0.572
				c-0.147,1.457-0.123,22.771-0.168,25.587c-0.044,2.81-0.069,19.882-0.066,25.591c0.003,5.631-0.267,29.813,0.152,36.223
				c0.014,0.209,0.123,0.348,0.258,0.42c0.076,0.134,0.207,0.234,0.408,0.23c16.817-0.302,124.651,0.431,129.382,0.287
				c0.364-0.011,0.539-0.275,0.544-0.551c0.09-0.072,0.156-0.187,0.168-0.351c0.414-5.699,0.305-11.419,0.374-17.129
				c0.07-5.71,0.037-11.431,0.036-17.142c-0.002-11.422-0.04-22.86,0.173-34.279C191.181,358.44,191.033,355.21,191.112,351.997z"/>
			<path style="fill:#75859C;" d="M138.258,430.371c-25.868-0.142-51.743-0.684-77.604-0.793
				c0.054-21.093,0.263-42.194,0.091-63.286c-0.006-0.764-1.178-0.765-1.188,0c-0.266,21.171-0.148,42.352-0.189,63.525
				c-0.343,0.349-0.326,0.978,0.04,1.313c0.147,0.452,0.756,0.53,1.063,0.228c25.919,0.318,51.859,0.198,77.786,0.481
				C139.203,431.85,139.205,430.376,138.258,430.371z"/>
			<path style="fill:#75859C;" d="M191.112,351.997c0.038-1.53,0.071-3.058,0.014-4.587c-0.06-1.601,0.08-3.18-0.07-4.781
				c-0.052-0.556-0.569-0.641-0.945-0.427c-0.007-0.001-0.012-0.005-0.02-0.005c-16.907-1.06-130.162-0.117-130.232,0.572
				c-0.072,0.716-0.103,6.223-0.122,11.976c1.023,0.011,2.045,0.021,3.068,0.037c5.457,0.089,10.913,0.13,16.37,0.169
				c10.828,0.078,21.658,0.044,32.485,0.129c21.742,0.17,43.483,0.26,65.225,0.396c4.736,0.03,9.474,0.074,14.212,0.115
				C191.088,354.392,191.083,353.193,191.112,351.997z"/>
			<path style="fill:#E1EEF7;" d="M185.448,351.416c-0.862-0.882-1.719-1.768-2.59-2.641c0.829-0.876,1.629-1.781,2.388-2.713
				c0.178-0.219,0.214-0.526,0-0.74c-0.184-0.184-0.561-0.22-0.74,0c-0.762,0.936-1.546,1.851-2.34,2.758
				c-0.351-0.349-0.702-0.698-1.053-1.047c-0.466-0.463-0.939-1.054-1.525-1.367c-0.241-0.129-0.482,0.126-0.363,0.363
				c0.288,0.578,0.851,1.056,1.289,1.521c0.365,0.388,0.73,0.775,1.095,1.163c-0.773,0.871-1.553,1.735-2.348,2.588
				c-0.298,0.319,0.15,0.756,0.475,0.475c0.874-0.755,1.711-1.556,2.523-2.382c0.846,0.891,1.706,1.769,2.561,2.651
				C185.218,352.458,185.849,351.827,185.448,351.416z"/>
			<path style="fill:#B4BFD1;" d="M175.397,351.269c-1.081-0.035-2.16-0.071-3.242-0.083c-0.53-0.006-1.059-0.013-1.589-0.019
				c-0.55-0.007-1.106-0.043-1.652,0.024c-0.266,0.033-0.395,0.467-0.071,0.522c1.057,0.177,2.178,0.12,3.249,0.153
				c1.102,0.035,2.203,0.047,3.305,0.059C175.82,351.93,175.818,351.282,175.397,351.269z"/>
		</g>
		<path style="fill:#B4BFD1;" d="M110.241,374.079c-0.85,0.394-1.7,0.79-2.549,1.187c-0.424,0.198-0.849,0.396-1.274,0.595
			c-0.417,0.195-0.878,0.361-1.262,0.615c-0.073,0.048-0.116,0.115-0.144,0.185c-0.023-0.002-0.045-0.009-0.068-0.01
			c-0.133-0.005-0.246,0.167-0.162,0.282c0.266,0.365,0.638,0.565,1.016,0.794c0.305,0.185,0.613,0.366,0.921,0.547
			c-1.575,2.561-3.119,5.141-4.687,7.706c-0.829,1.356-1.65,2.718-2.464,4.084c-0.755,1.267-1.589,2.522-2.257,3.841
			c-2.763-2.189-5.499-4.421-8.341-6.505c-0.07-0.052-0.145-0.058-0.214-0.038c-0.202-0.095-0.456-0.077-0.59,0.171
			c-1.994,3.684-4.427,7.187-6.787,10.643c-1.168,1.711-2.377,3.395-3.608,5.061c-0.616,0.833-1.245,1.656-1.862,2.488
			c-0.641,0.864-1.422,1.717-1.918,2.67c-0.167,0.321,0.222,0.611,0.491,0.379c1.487-1.288,2.656-3.199,3.823-4.778
			c1.271-1.718,2.507-3.46,3.728-5.214c2.421-3.48,4.562-7.123,6.875-10.669c2.661,2.283,5.433,4.441,8.168,6.636
			c0.317,0.255,0.735-0.044,0.706-0.341c0.915-1.243,1.674-2.626,2.485-3.936c0.837-1.352,1.668-2.708,2.49-4.069
			c1.555-2.577,3.135-5.139,4.685-7.719c0.671,0.377,1.352,0.731,2.053,1.054c0.305,0.14,0.592-0.032,0.628-0.36
			c0.178-1.626,0.444-3.242,0.693-4.858C110.87,374.173,110.566,373.928,110.241,374.079z"/>
		<path style="fill:#FC6165;" d="M99.211,393.871c-0.092-0.327-0.257-0.611-0.496-0.852c-0.13-0.1-0.26-0.201-0.391-0.302
			c-0.301-0.175-0.626-0.262-0.974-0.263c-0.266-0.01-0.514,0.045-0.744,0.166c-0.239,0.078-0.446,0.211-0.621,0.399
			c-0.188,0.175-0.321,0.382-0.399,0.621c-0.121,0.23-0.176,0.478-0.166,0.743c0.023,0.171,0.046,0.342,0.069,0.513
			c0.092,0.327,0.257,0.611,0.496,0.852l0.391,0.302c0.301,0.174,0.626,0.262,0.974,0.263c0.266,0.01,0.513-0.045,0.743-0.166
			c0.239-0.078,0.446-0.211,0.621-0.399c0.188-0.175,0.321-0.382,0.399-0.621c0.121-0.23,0.176-0.478,0.166-0.743
			C99.257,394.213,99.234,394.042,99.211,393.871z"/>
		<path style="fill:#88E843;" d="M90.405,387.388c-0.092-0.327-0.257-0.611-0.496-0.852c-0.13-0.101-0.26-0.201-0.391-0.302
			c-0.301-0.174-0.626-0.262-0.974-0.264c-0.266-0.01-0.514,0.046-0.743,0.166c-0.239,0.078-0.446,0.211-0.621,0.399
			c-0.188,0.175-0.321,0.382-0.399,0.621c-0.121,0.23-0.176,0.478-0.166,0.743c0.023,0.171,0.046,0.342,0.069,0.513
			c0.092,0.327,0.257,0.611,0.496,0.852l0.391,0.302c0.301,0.175,0.626,0.262,0.974,0.263c0.266,0.01,0.513-0.045,0.743-0.166
			c0.239-0.078,0.446-0.211,0.621-0.399c0.188-0.175,0.321-0.382,0.399-0.621c0.121-0.23,0.176-0.478,0.166-0.743
			C90.451,387.73,90.428,387.559,90.405,387.388z"/>
		<path style="fill:#FC6165;" d="M76.281,408.117c-0.092-0.328-0.258-0.613-0.498-0.854c-0.131-0.101-0.261-0.202-0.392-0.303
			c-0.302-0.175-0.628-0.263-0.977-0.264c-0.267-0.01-0.515,0.046-0.746,0.167c-0.24,0.078-0.448,0.211-0.623,0.4
			c-0.189,0.175-0.322,0.383-0.4,0.623c-0.121,0.231-0.177,0.479-0.167,0.746c0.023,0.172,0.046,0.343,0.069,0.515
			c0.092,0.328,0.258,0.613,0.498,0.854c0.131,0.101,0.261,0.202,0.392,0.303c0.302,0.175,0.628,0.263,0.977,0.264
			c0.266,0.01,0.515-0.045,0.746-0.167c0.24-0.078,0.448-0.211,0.623-0.4c0.189-0.175,0.322-0.383,0.4-0.623
			c0.121-0.231,0.177-0.479,0.167-0.746C76.327,408.461,76.304,408.289,76.281,408.117z"/>
		<g>
			<path style="fill:#A0F2FF;" d="M125.819,370.744c-0.175,0.001-0.299,0.04-0.381,0.095c-0.133,0.027-0.243,0.081-0.269,0.157
				c-0.131,0.391-0.031,0.818-0.024,1.214c0.007,0.415,0.016,0.831,0.022,1.246c0.012,0.753-0.06,1.523,0.164,2.269
				c-0.004,0.039,0.004,0.078,0.03,0.115c0.007,0.02,0.008,0.039,0.015,0.059c0.041,0.111,0.287,0.142,0.466,0.105
				c8.642,0.073,17.291-0.044,25.933-0.037c8.645,0.008,17.322,0.112,25.962-0.044c0.235-0.004,0.293-0.141,0.175-0.211
				c0.014-0.012,0.037-0.02,0.044-0.036c0.144-0.359,0.041-0.742,0.028-1.107c-0.013-0.371-0.016-0.743-0.007-1.115
				c0.008-0.371,0.026-0.743,0.048-1.114c0.022-0.376,0.151-0.784,0.073-1.158c-0.011-0.052-0.062-0.093-0.13-0.124
				c-0.005-0.059-0.078-0.117-0.229-0.12c-8.639-0.175-17.316-0.09-25.961-0.101C143.128,370.826,134.471,370.69,125.819,370.744z"
				/>
			<path style="fill:#A0F2FF;" d="M125.819,380.808c-0.175,0.001-0.299,0.04-0.381,0.096c-0.133,0.027-0.243,0.081-0.269,0.157
				c-0.131,0.391-0.031,0.818-0.024,1.214c0.007,0.415,0.016,0.831,0.022,1.246c0.012,0.753-0.06,1.523,0.164,2.269
				c-0.004,0.039,0.004,0.078,0.03,0.115c0.007,0.02,0.008,0.04,0.015,0.059c0.041,0.111,0.287,0.142,0.466,0.105
				c8.642,0.073,17.291-0.044,25.933-0.037c8.645,0.008,17.322,0.112,25.962-0.044c0.235-0.004,0.293-0.141,0.175-0.212
				c0.014-0.012,0.037-0.02,0.044-0.036c0.144-0.359,0.041-0.742,0.028-1.107c-0.013-0.371-0.016-0.743-0.007-1.115
				c0.008-0.371,0.026-0.743,0.048-1.114c0.022-0.376,0.151-0.784,0.073-1.158c-0.011-0.052-0.062-0.093-0.13-0.124
				c-0.005-0.059-0.078-0.117-0.229-0.121c-8.639-0.175-17.316-0.09-25.961-0.101C143.128,380.89,134.471,380.754,125.819,380.808z"
				/>
			<path style="fill:#A0F2FF;" d="M125.635,390.873c-0.13,0.001-0.222,0.04-0.283,0.096c-0.099,0.027-0.18,0.081-0.199,0.157
				c-0.097,0.391-0.023,0.818-0.018,1.214c0.006,0.415,0.012,0.831,0.017,1.246c0.009,0.753-0.044,1.523,0.122,2.269
				c-0.003,0.039,0.003,0.078,0.022,0.115c0.005,0.02,0.006,0.04,0.011,0.059c0.031,0.111,0.213,0.142,0.346,0.105
				c6.412,0.073,12.83-0.044,19.244-0.037c6.415,0.007,12.853,0.112,19.265-0.044c0.174-0.004,0.218-0.141,0.13-0.212
				c0.011-0.012,0.028-0.02,0.033-0.036c0.107-0.359,0.03-0.742,0.02-1.107c-0.01-0.371-0.011-0.743-0.005-1.115
				c0.006-0.371,0.02-0.743,0.036-1.114c0.016-0.376,0.112-0.784,0.054-1.158c-0.008-0.052-0.046-0.093-0.096-0.124
				c-0.004-0.059-0.058-0.118-0.17-0.121c-6.41-0.175-12.849-0.09-19.264-0.101C138.478,390.955,132.054,390.819,125.635,390.873z"
				/>
			<path style="fill:#5FB5FF;" d="M177.985,414.827c-0.013-0.371-0.015-0.743-0.007-1.115c0.008-0.371,0.026-0.743,0.048-1.114
				c0.022-0.376,0.151-0.784,0.073-1.158c-0.011-0.052-0.062-0.093-0.13-0.124c-0.005-0.059-0.078-0.118-0.229-0.121
				c-6.104-0.124-12.227-0.116-18.344-0.106c0.017,1.331,0.025,2.663,0.094,3.988c0.02,0.39,0.043,0.78,0.064,1.17
				c6.064,0.023,12.133,0.043,18.184-0.066c0.235-0.004,0.293-0.141,0.175-0.212c0.014-0.012,0.037-0.02,0.044-0.036
				C178.102,415.575,177.998,415.192,177.985,414.827z"/>
			<path style="fill:#5FB5FF;" d="M156.081,415.078c-0.034-1.32-0.068-2.653-0.062-3.985c-1.413,0.002-2.827,0.004-4.239,0.003
				c-8.652-0.012-17.309-0.148-25.961-0.093c-0.175,0.001-0.299,0.04-0.381,0.096c-0.133,0.027-0.243,0.081-0.269,0.157
				c-0.131,0.391-0.031,0.818-0.024,1.214c0.007,0.415,0.016,0.831,0.022,1.246c0.012,0.753-0.06,1.523,0.164,2.269
				c-0.004,0.039,0.004,0.078,0.03,0.115c0.007,0.02,0.008,0.04,0.015,0.059c0.041,0.111,0.287,0.142,0.466,0.105
				c8.642,0.073,17.291-0.044,25.933-0.037c1.45,0.001,2.902,0.007,4.354,0.012C156.114,415.851,156.091,415.465,156.081,415.078z"
				/>
		</g>
	</g>
	<g>
		<g>
			<path style="fill:#FFFFFF;" d="M442.234,372.756c0.04-1.51,0.075-3.018,0.007-4.528c-0.071-1.58,0.085-3.138-0.088-4.719
				c-0.06-0.549-0.644-0.632-1.067-0.419c-0.008-0.001-0.014-0.005-0.022-0.005c-19.092-1.01-146.971,0.161-147.049,0.842
				c-0.164,1.438-0.097,22.475-0.142,25.255c-0.045,2.773-0.041,19.624-0.026,25.259c0.014,5.558-0.245,29.426,0.239,35.752
				c0.016,0.206,0.139,0.343,0.292,0.414c0.086,0.132,0.234,0.23,0.461,0.226c18.988-0.334,140.748,0.16,146.09,0.008
				c0.411-0.012,0.608-0.272,0.613-0.545c0.102-0.072,0.176-0.185,0.19-0.347c0.457-5.625,0.323-11.271,0.391-16.907
				c0.068-5.636,0.02-11.282,0.009-16.919c-0.023-11.274-0.087-22.563,0.131-33.834
				C442.324,379.115,442.151,375.927,442.234,372.756z"/>
			<path style="fill:#75859C;" d="M442.472,450.846c0.474-18.506,0.699-37.097,0.588-55.609c-0.003-0.554-0.843-0.552-0.859,0
				c-0.536,18.41-0.74,36.905-0.697,55.323c-24.495-0.072-48.99-0.08-73.485-0.118c-11.987-0.019-23.974-0.038-35.961-0.058
				c-12.498-0.02-25.306-0.835-37.769,0.125c0.438-5.244,0.134-10.621,0.129-15.879c-0.005-5.428,0.298-10.985-0.331-16.38
				c-0.023-0.201-0.289-0.201-0.313,0c-0.629,5.394-0.326,10.954-0.331,16.38c-0.005,5.427-0.336,10.977,0.167,16.38
				c0.036,0.389,0.53,0.398,0.617,0.05c12.15,1.001,24.641,0.27,36.831,0.31c12.32,0.04,24.64,0.08,36.96,0.121
				c24.64,0.082,49.28,0.194,73.92,0.241c0.482,0.001,0.653-0.476,0.518-0.821C442.46,450.889,442.471,450.871,442.472,450.846z"/>
			<path style="fill:#75859C;" d="M442.154,363.59c-0.06-0.598-0.644-0.689-1.067-0.457c-0.008-0.001-0.014-0.005-0.022-0.006
				c-19.092-1.105-146.971,0.151-147.048,0.893c-0.076,0.727-0.101,6.053-0.111,11.857c3.159,0.093,6.323,0.086,9.489,0.127
				c5.457,0.071,10.913,0.099,16.371,0.125c10.828,0.052,21.658,0,32.485,0.058c21.742,0.116,43.484,0.158,65.226,0.242
				c8.244,0.032,16.495,0.117,24.743,0.123c-0.006-0.961-0.004-1.922,0.019-2.881c0.039-1.646,0.074-3.291,0.006-4.937
				C442.171,367.013,442.326,365.314,442.154,363.59z"/>
			<path style="fill:#E1EEF7;" d="M436.817,372.319c-0.863-0.88-1.723-1.765-2.595-2.637c0.828-0.878,1.626-1.784,2.383-2.718
				c0.178-0.219,0.213-0.526-0.001-0.74c-0.185-0.184-0.561-0.219-0.74,0.001c-0.761,0.938-1.543,1.854-2.335,2.763
				c-0.352-0.348-0.704-0.697-1.055-1.045c-0.467-0.462-0.941-1.053-1.528-1.364c-0.242-0.128-0.481,0.127-0.363,0.364
				c0.29,0.577,0.853,1.054,1.292,1.518c0.366,0.387,0.731,0.774,1.097,1.161c-0.771,0.872-1.55,1.738-2.344,2.593
				c-0.297,0.32,0.151,0.756,0.476,0.474c0.872-0.757,1.708-1.559,2.518-2.386c0.848,0.889,1.709,1.766,2.565,2.646
				C436.589,373.361,437.219,372.728,436.817,372.319z"/>
			<path style="fill:#B4BFD1;" d="M426.765,372.19c-1.081-0.033-2.16-0.067-3.242-0.077c-0.53-0.005-1.059-0.01-1.589-0.016
				c-0.55-0.005-1.106-0.041-1.652,0.027c-0.266,0.033-0.394,0.468-0.07,0.522c1.057,0.175,2.178,0.116,3.249,0.147
				c1.102,0.033,2.203,0.043,3.305,0.053C427.19,372.85,427.187,372.203,426.765,372.19z"/>
		</g>
		<g>
			<path style="fill:#FC6165;" d="M426.735,423.661c-0.046-3.871-0.092-7.742-0.138-11.613c-0.006-0.457-5.431-0.377-12.134-13.622
				c-1.65-3.26-7.385-5.705-11.048-5.532c-4.009,0.19-7.392,2.229-10.007,5.188c-2.912,3.296-4.821,7.339-7.75,10.618
				c-2.779,3.111-7.448,5.889-11.657,3.853c-3.561-1.723-5.076-5.953-7.976-8.469c-2.828-2.454-6.413-3.896-10.148-4.11
				c-8.022-0.46-16.268,5.822-16.741,14.115c-0.009,0.15,0.077,0.249,0.189,0.296c-0.156,3.421-0.008,6.891-0.021,10.313
				c-0.014,3.627-0.198,7.319,0.098,10.935c0.009,0.116,0.06,0.198,0.128,0.253c0.008,0.195,0.136,0.383,0.39,0.386
				c11.198,0.12,22.407,0.024,33.605-0.085c11.201-0.109,22.403-0.081,33.605-0.178c6.306-0.055,12.612-0.057,18.918-0.09
				c0.278-0.001,0.428-0.19,0.466-0.402c0.109-0.016,0.211-0.089,0.225-0.242C427.089,431.449,426.781,427.497,426.735,423.661z"/>
			<path style="fill:#FCA4A6;" d="M357.33,401.854c-0.006-0.412-0.647-0.412-0.641,0.001c0.181,10.924,0.269,21.855,0.608,32.776
				c0.009,0.291,0.453,0.292,0.453-0.001C357.747,423.705,357.492,412.777,357.33,401.854z"/>
			<path style="fill:#FCA4A6;" d="M380.369,429.881c-0.006-1.743-0.012-3.486-0.017-5.229c-0.012-3.486-0.032-6.973-0.06-10.459
				c-0.004-0.442-0.689-0.442-0.688,0.001c0.014,3.486,0.037,6.973,0.068,10.459c0.016,1.743,0.031,3.486,0.047,5.229
				c0.014,1.581-0.135,3.322,0.182,4.875c0.035,0.171,0.314,0.172,0.347-0.001C380.545,433.198,380.374,431.465,380.369,429.881z"/>
			<path style="fill:#FCA4A6;" d="M404.869,425.509c-0.144-3.222-0.241-6.447-0.315-9.671c-0.146-6.367-0.152-12.735-0.116-19.103
				c0.003-0.443-0.676-0.441-0.688,0.001c-0.169,6.449-0.138,12.902,0.012,19.352c0.073,3.142,0.186,6.283,0.315,9.423
				c0.129,3.143,0.215,6.36,0.672,9.475c0.038,0.26,0.439,0.185,0.445-0.061C405.266,431.799,405.009,428.631,404.869,425.509z"/>
		</g>
		<g>
			<path style="fill:#A0F2FF;" d="M304.118,392.284c-0.081,0.001-0.139,0.041-0.177,0.096c-0.062,0.027-0.113,0.081-0.125,0.158
				c-0.06,0.391-0.013,0.818-0.009,1.214c0.004,0.415,0.009,0.831,0.013,1.246c0.007,0.753-0.025,1.523,0.081,2.269
				c-0.002,0.039,0.002,0.078,0.014,0.115c0.003,0.02,0.004,0.039,0.007,0.059c0.019,0.111,0.134,0.142,0.217,0.105
				c4.015,0.065,8.033-0.06,12.049-0.06c4.017,0,8.048,0.096,12.062-0.067c0.109-0.005,0.136-0.142,0.081-0.212
				c0.007-0.012,0.017-0.02,0.02-0.036c0.066-0.359,0.018-0.742,0.011-1.107c-0.007-0.371-0.009-0.743-0.005-1.115
				c0.003-0.371,0.011-0.743,0.02-1.114c0.009-0.376,0.069-0.784,0.032-1.158c-0.005-0.052-0.029-0.093-0.06-0.124
				c-0.002-0.059-0.037-0.118-0.107-0.12c-4.014-0.167-8.045-0.074-12.062-0.078C312.16,392.351,308.137,392.222,304.118,392.284z"
				/>
			<path style="fill:#A0F2FF;" d="M304.05,401.445c-0.06,0.001-0.103,0.04-0.131,0.096c-0.046,0.027-0.084,0.081-0.092,0.157
				c-0.044,0.391-0.009,0.818-0.006,1.214c0.003,0.415,0.007,0.831,0.01,1.246c0.005,0.753-0.018,1.523,0.061,2.269
				c-0.001,0.039,0.002,0.078,0.01,0.115c0.002,0.019,0.003,0.039,0.005,0.059c0.014,0.111,0.099,0.142,0.161,0.105
				c2.985,0.067,5.971-0.056,8.957-0.054c2.986,0.002,5.982,0.1,8.966-0.061c0.081-0.004,0.101-0.142,0.06-0.212
				c0.005-0.012,0.013-0.02,0.015-0.036c0.049-0.359,0.013-0.742,0.008-1.107c-0.005-0.371-0.007-0.743-0.005-1.114
				c0.002-0.372,0.008-0.743,0.014-1.114c0.007-0.376,0.051-0.785,0.023-1.158c-0.004-0.052-0.022-0.093-0.045-0.124
				c-0.002-0.059-0.027-0.117-0.079-0.12c-2.984-0.169-5.981-0.078-8.966-0.084C310.028,401.516,307.038,401.385,304.05,401.445z"/>
			<path style="fill:#5FB5FF;" d="M304.172,422.093c-0.081,0.001-0.138,0.023-0.176,0.054c-0.061,0.015-0.112,0.046-0.124,0.088
				c-0.06,0.219-0.014,0.458-0.01,0.68c0.004,0.233,0.008,0.465,0.012,0.698c0.006,0.422-0.026,0.853,0.078,1.271
				c-0.002,0.022,0.002,0.044,0.014,0.064c0.003,0.011,0.004,0.022,0.007,0.033c0.019,0.062,0.133,0.079,0.216,0.058
				c3.994,0.033,7.991-0.04,11.986-0.043c3.996-0.003,8.006,0.047,11.999-0.047c0.108-0.003,0.135-0.079,0.08-0.119
				c0.007-0.007,0.017-0.011,0.02-0.02c0.066-0.201,0.018-0.416,0.012-0.62c-0.006-0.208-0.008-0.416-0.004-0.624
				c0.003-0.208,0.011-0.416,0.021-0.624c0.01-0.211,0.069-0.439,0.033-0.648c-0.005-0.029-0.029-0.052-0.06-0.069
				c-0.002-0.033-0.036-0.066-0.106-0.067c-3.993-0.09-8.003-0.035-11.999-0.034C312.172,422.124,308.171,422.055,304.172,422.093z"
				/>
			<path style="fill:#5FB5FF;" d="M304.083,428.158c-0.056,0.001-0.096,0.023-0.122,0.054c-0.043,0.015-0.078,0.046-0.086,0.088
				c-0.042,0.219-0.009,0.458-0.006,0.68c0.003,0.233,0.006,0.465,0.008,0.698c0.005,0.422-0.018,0.853,0.055,1.271
				c-0.001,0.022,0.001,0.044,0.01,0.064c0.002,0.011,0.003,0.022,0.005,0.033c0.013,0.062,0.092,0.079,0.15,0.059
				c2.774,0.035,5.551-0.035,8.325-0.036c2.775-0.001,5.561,0.052,8.335-0.04c0.075-0.003,0.094-0.079,0.056-0.118
				c0.005-0.007,0.012-0.011,0.014-0.02c0.046-0.201,0.012-0.415,0.008-0.62c-0.005-0.208-0.006-0.416-0.003-0.624
				c0.002-0.208,0.008-0.416,0.014-0.624c0.007-0.211,0.048-0.439,0.022-0.648c-0.004-0.029-0.02-0.052-0.042-0.07
				c-0.002-0.033-0.025-0.066-0.074-0.067c-2.773-0.093-5.559-0.04-8.334-0.041C309.639,428.193,306.86,428.122,304.083,428.158z"/>
		</g>
	</g>
</g>
</svg>
